{"glyphs":{"0":{"ha":888,"x_min":49,"x_max":839,"o":"m 444 -14 q 728 109 618 -14 q 839 483 839 232 q 731 860 839 735 q 447 985 622 985 q 160 859 271 985 q 49 488 49 733 q 159 114 49 242 q 357 -14 269 -14 q 444 -14 444 -14 m 444 718 q 534 658 497 718 q 571 488 571 599 q 535 317 571 376 q 444 257 500 257 q 352 316 388 257 q 317 486 317 375 q 353 658 317 597 q 417 718 390 718 q 444 718 444 718 "},"1":{"ha":564,"x_min":21,"x_max":494,"o":"m 494 24 l 494 936 q 480 962 494 951 q 442 972 465 972 l 61 972 q 30 929 39 972 q 21 840 21 886 q 63 707 21 707 l 213 708 l 213 24 q 353 0 213 0 q 494 24 494 0 "},"2":{"ha":729,"x_min":60,"x_max":686,"o":"m 601 0 q 664 38 642 0 q 686 129 686 75 q 679 257 686 183 l 399 246 q 593 463 510 338 q 676 711 676 589 q 365 988 676 988 q 170 956 263 988 q 67 888 78 924 q 60 849 60 869 q 67 806 60 829 q 142 668 88 733 q 210 704 167 688 q 298 721 254 721 q 362 701 342 721 q 382 643 382 682 q 71 207 382 528 q 63 172 63 199 q 72 94 63 146 q 140 0 92 0 l 601 0 "},"3":{"ha":733,"x_min":28,"x_max":678,"o":"m 28 92 q 118 17 28 49 q 318 -14 208 -14 q 585 67 492 -14 q 678 281 678 149 q 503 521 678 450 q 647 779 647 611 q 572 931 647 875 q 364 986 497 986 q 142 954 231 986 q 54 859 54 922 q 117 683 54 796 q 267 714 189 714 q 371 656 371 714 q 330 601 371 622 q 251 579 289 579 l 211 578 q 172 511 172 576 q 187 431 172 472 q 218 390 201 390 l 268 390 q 367 375 336 386 q 399 324 399 364 q 365 263 399 285 q 275 240 331 240 q 106 289 186 240 q 85 259 103 289 q 47 180 67 229 q 28 92 28 131 "},"4":{"ha":831,"x_min":13,"x_max":775,"o":"m 760 415 l 668 415 l 667 972 q 579 979 667 979 q 412 974 492 979 q 326 957 332 968 l 22 418 q 14 377 14 403 q 43 294 14 351 q 108 200 72 236 l 385 200 l 385 28 q 456 3 385 8 l 513 0 q 611 7 554 0 q 668 29 668 14 l 668 204 l 760 206 q 774 310 774 206 q 760 415 774 415 m 425 414 l 263 414 l 425 704 l 425 414 "},"5":{"ha":728,"x_min":60,"x_max":658,"o":"m 593 972 l 143 972 q 101 915 101 972 l 101 481 q 115 442 101 457 q 143 431 129 428 l 263 432 q 382 321 382 432 q 348 248 382 276 q 262 219 314 219 q 111 260 210 219 q 103 265 104 265 q 72 195 83 265 q 61 87 61 125 q 72 31 61 49 q 301 -14 144 -14 q 558 76 458 -14 q 658 307 658 165 q 585 535 658 449 q 364 621 513 621 l 318 621 l 319 722 l 590 722 q 613 772 607 722 q 619 857 619 821 q 593 972 619 972 "},"6":{"ha":799,"x_min":49,"x_max":743,"o":"m 593 706 q 631 771 617 740 q 669 901 669 840 q 461 986 669 986 q 163 838 278 986 q 49 438 49 690 q 140 103 49 221 q 393 -14 232 -14 q 649 76 554 -14 q 743 318 743 165 q 677 517 743 444 q 471 590 611 590 q 317 569 389 590 q 464 736 335 736 q 593 706 538 736 m 503 317 q 407 204 503 204 q 347 235 369 204 q 319 299 324 267 q 314 354 314 332 q 315 394 314 376 q 397 414 343 414 q 476 387 450 414 q 503 317 503 360 "},"7":{"ha":694,"x_min":33,"x_max":674,"o":"m 435 18 l 674 844 q 650 906 667 875 q 560 967 615 967 l 74 965 q 42 922 51 965 q 33 833 33 879 q 75 699 33 699 l 357 699 l 125 18 q 131 8 125 13 q 288 -4 147 -4 q 435 18 428 -4 "},"8":{"ha":792,"x_min":38,"x_max":747,"o":"m 747 293 q 710 438 747 372 q 617 546 674 504 q 706 738 706 632 q 623 915 707 844 q 399 985 539 985 q 168 910 258 985 q 78 719 78 835 q 172 522 78 604 q 38 284 38 418 q 131 67 38 150 q 388 -15 225 -15 q 649 71 551 -15 q 747 293 747 157 m 313 306 q 383 429 313 386 q 479 306 479 381 q 456 241 479 265 q 397 217 433 217 q 337 241 361 217 q 313 306 313 265 m 463 699 q 415 585 463 638 q 319 703 319 640 q 393 771 322 771 q 441 750 419 771 q 463 699 463 729 "},"9":{"ha":785,"x_min":56,"x_max":736,"o":"m 169 242 q 133 174 150 242 q 117 65 117 107 q 353 -14 117 -14 q 640 131 543 -14 q 736 547 736 276 q 645 875 736 764 q 396 986 554 986 q 147 893 238 986 q 56 651 56 800 q 135 420 56 501 q 360 339 214 339 q 471 358 401 339 q 422 254 464 288 q 326 221 379 221 q 169 242 274 221 m 393 736 q 456 694 438 736 q 474 556 474 651 q 401 536 446 536 q 328 563 357 536 q 300 635 300 590 q 324 708 300 679 q 371 736 349 736 q 393 736 393 736 "}," ":{"ha":261,"x_min":0,"x_max":0,"o":""},"!":{"ha":399,"x_min":63,"x_max":319,"o":"m 292 292 l 319 976 q 192 986 319 986 q 65 975 65 986 l 93 290 q 192 283 93 283 q 292 292 292 283 m 63 208 l 63 4 q 191 -4 63 -4 q 319 10 319 -4 l 319 210 q 191 218 319 218 q 63 208 63 218 "},"\"":{"ha":639,"x_min":90,"x_max":553,"o":"m 289 921 q 239 957 289 946 q 189 963 214 963 q 139 957 164 963 q 90 921 90 946 l 132 628 q 172 592 132 603 q 211 586 192 586 q 250 592 231 586 q 289 628 289 603 l 289 921 m 472 592 q 511 628 511 603 l 553 921 q 503 957 553 946 q 453 963 478 963 q 403 957 428 963 q 354 921 354 946 l 354 628 q 394 592 354 603 q 433 586 414 586 q 472 592 453 586 "},"#":{"ha":1157,"x_min":125,"x_max":1072,"o":"m 978 417 l 828 417 l 876 561 l 1031 561 q 1067 601 1057 561 q 1071 640 1071 619 q 1064 682 1071 660 q 1028 722 1053 722 l 932 722 l 983 874 q 976 903 989 888 q 896 942 954 931 q 828 924 839 954 l 760 721 l 599 721 l 651 876 q 600 933 663 906 q 540 947 568 947 q 496 925 504 947 l 426 721 l 221 721 q 194 706 206 722 q 179 669 182 690 q 176 622 176 649 q 189 576 176 596 q 214 560 199 560 l 372 560 l 324 415 l 171 415 q 144 401 156 417 q 129 364 132 385 q 126 317 126 343 q 139 271 126 290 q 164 254 149 254 l 268 254 l 210 79 q 258 17 194 47 q 322 1 290 1 q 361 21 354 1 l 440 254 l 601 254 l 542 76 q 590 14 526 44 q 651 -1 622 -1 q 693 19 685 -1 l 772 254 l 981 256 q 1017 296 1007 256 q 1021 334 1021 314 q 1014 376 1021 354 q 978 417 1003 417 m 533 572 l 722 572 l 665 403 l 476 403 l 533 572 "},"$":{"ha":738,"x_min":47,"x_max":713,"o":"m 421 1065 q 401 1101 421 1090 l 382 1107 q 358 1099 372 1107 q 343 1065 343 1090 l 343 983 q 126 886 206 967 q 47 681 47 806 q 343 378 47 396 l 343 225 q 106 301 218 233 q 94 283 99 292 q 47 126 47 204 q 137 28 47 67 q 343 -14 226 -11 l 343 -106 q 363 -142 343 -131 l 382 -147 q 406 -139 392 -147 q 421 -106 421 -131 l 421 -10 q 640 96 568 6 q 713 313 713 186 q 421 593 713 582 l 421 750 q 606 696 489 744 q 645 771 617 700 q 674 885 674 842 q 599 958 674 933 q 421 986 524 982 l 421 1065 m 519 319 q 421 228 519 244 l 421 378 q 498 363 476 375 q 519 319 519 351 m 258 665 q 343 749 258 735 l 343 597 q 258 665 258 607 "},"%":{"ha":1108,"x_min":49,"x_max":1046,"o":"m 259 988 q 107 920 165 988 q 49 719 49 853 q 108 519 49 585 q 261 453 168 453 q 413 521 354 453 q 472 720 472 589 q 413 919 472 851 q 306 988 353 988 q 259 988 259 988 m 326 721 q 308 656 326 678 q 261 633 290 633 q 214 656 232 633 q 196 721 196 678 q 261 811 196 811 q 326 721 326 811 m 833 524 q 681 456 739 524 q 622 255 622 389 q 682 55 622 121 q 835 -11 742 -11 q 987 57 928 -11 q 1046 256 1046 125 q 986 456 1046 388 q 880 524 926 524 q 833 524 833 524 m 900 257 q 882 192 900 214 q 835 169 864 169 q 788 192 806 169 q 769 257 769 214 q 835 347 769 347 q 900 257 900 347 m 803 975 l 143 92 q 138 72 138 85 q 156 39 138 60 q 247 -14 197 -14 q 274 -3 261 -14 l 933 881 q 939 901 939 888 q 922 935 939 914 q 829 986 881 986 q 803 975 815 986 "},"&":{"ha":926,"x_min":61,"x_max":869,"o":"m 485 679 q 565 661 503 661 q 673 683 628 661 q 718 729 718 706 q 635 917 718 847 q 411 986 553 986 q 181 908 269 986 q 92 701 92 829 q 179 476 92 574 q 61 266 61 389 q 154 65 61 143 q 408 -14 247 -14 q 652 58 568 -14 q 736 240 736 131 q 700 399 736 311 l 842 415 q 868 542 868 478 q 829 621 868 621 q 553 586 826 621 q 478 581 511 581 q 329 686 329 581 q 351 747 329 725 q 407 769 374 769 q 463 749 440 769 q 486 693 486 728 l 485 679 m 332 396 q 410 376 364 376 q 503 385 456 376 q 504 370 503 382 q 506 335 506 358 q 484 249 506 283 q 415 215 463 215 q 326 269 349 215 q 317 324 317 293 q 332 396 317 356 "},"'":{"ha":418,"x_min":97,"x_max":310,"o":"m 242 592 q 282 628 282 603 l 310 921 q 256 957 310 946 q 203 963 229 963 q 150 957 176 963 q 97 921 97 946 l 125 628 q 164 592 125 603 q 203 586 183 586 q 242 592 222 586 "},"(":{"ha":597,"x_min":132,"x_max":478,"o":"m 264 939 q 132 446 132 697 q 258 -61 132 194 q 328 -101 278 -101 q 363 -95 342 -101 q 424 -71 385 -89 q 478 -39 464 -53 q 342 432 343 192 q 374 664 342 557 q 474 918 407 771 q 440 935 456 929 q 392 954 424 942 q 311 967 360 967 q 264 939 279 967 "},")":{"ha":586,"x_min":132,"x_max":478,"o":"m 346 939 q 286 968 325 968 q 182 940 247 968 q 136 918 136 921 q 235 664 203 771 q 268 432 268 557 q 132 -39 267 192 q 210 -82 146 -53 q 282 -101 253 -101 q 351 -61 331 -101 q 478 446 478 194 q 346 939 478 697 "},"*":{"ha":774,"x_min":113,"x_max":678,"o":"m 453 763 l 458 928 q 428 961 460 951 q 394 967 411 967 q 361 961 378 967 q 329 928 328 951 l 335 763 l 161 794 q 126 769 140 794 q 113 718 113 743 q 144 672 113 674 q 304 653 189 668 l 207 499 q 201 480 201 492 q 222 447 201 468 q 263 422 243 426 q 297 418 283 418 q 318 429 310 418 l 393 586 l 475 429 q 510 415 482 415 q 532 419 518 415 q 589 494 608 447 l 486 653 l 646 672 q 678 728 678 675 q 664 769 678 744 q 635 794 650 794 q 453 763 621 794 "},"+":{"ha":836,"x_min":51,"x_max":767,"o":"m 490 797 q 450 833 490 822 l 410 839 q 369 833 389 839 q 329 797 329 822 l 329 564 l 93 564 q 57 524 68 564 q 51 483 51 503 q 57 443 51 464 q 93 403 68 403 l 329 403 l 329 165 q 369 129 329 140 l 410 124 q 450 129 431 124 q 490 165 490 140 l 490 403 l 725 403 q 761 443 750 403 q 767 483 767 464 q 761 524 767 503 q 725 564 750 564 l 490 564 l 490 797 "},",":{"ha":424,"x_min":74,"x_max":394,"o":"m 167 206 l 161 79 l 76 -93 q 75 -105 75 -99 q 81 -118 75 -111 q 199 -149 106 -149 q 311 -108 293 -149 l 392 81 l 394 199 q 285 228 394 228 q 167 206 175 228 "},"-":{"ha":729,"x_min":49,"x_max":681,"o":"m 639 264 q 675 304 664 264 q 681 344 681 325 q 675 385 681 364 q 639 425 664 425 l 90 425 q 54 385 65 425 q 49 344 49 364 q 54 304 49 325 q 90 264 65 264 l 639 264 "},".":{"ha":318,"x_min":28,"x_max":290,"o":"m 290 -4 l 290 250 q 159 257 290 257 q 28 244 28 257 l 28 -6 q 159 -14 28 -14 q 290 -4 290 -14 "},"/":{"ha":796,"x_min":0,"x_max":796,"o":"m 653 1076 l 4 -50 q 0 -65 0 -57 q 4 -81 0 -72 q 72 -136 19 -111 q 114 -146 93 -146 q 143 -132 135 -146 l 792 994 q 794 1008 794 1000 q 789 1026 794 1017 q 722 1082 774 1058 q 680 1092 700 1092 q 653 1076 660 1092 "},":":{"ha":385,"x_min":81,"x_max":343,"o":"m 343 -4 l 343 250 q 212 257 343 257 q 81 244 81 257 l 81 -6 q 212 -14 81 -14 q 343 -4 343 -14 m 343 442 l 343 696 q 212 703 343 703 q 81 690 81 703 l 81 440 q 212 432 81 432 q 343 442 343 432 "},";":{"ha":385,"x_min":18,"x_max":343,"o":"m 111 206 l 106 79 l 21 -93 q 19 -105 19 -99 q 25 -118 19 -111 q 144 -149 50 -149 q 256 -108 238 -149 l 336 81 l 339 199 q 229 228 339 228 q 111 206 119 228 m 343 442 l 343 696 q 212 703 343 703 q 81 690 81 703 l 81 440 q 212 432 81 432 q 343 442 343 432 "},"<":{"ha":672,"x_min":72,"x_max":549,"o":"m 408 876 l 86 492 q 72 463 72 478 q 92 428 72 447 l 413 72 q 437 63 422 63 q 481 76 451 63 q 529 115 510 89 q 549 152 549 140 q 540 172 549 164 l 256 465 l 536 776 q 544 797 544 785 q 526 833 544 808 q 477 872 507 858 q 432 886 447 886 q 408 876 417 886 "},"=":{"ha":806,"x_min":93,"x_max":725,"o":"m 683 222 q 719 263 708 222 q 725 303 725 283 q 719 343 725 322 q 683 383 708 383 l 135 383 q 99 343 110 383 q 93 303 93 322 q 99 263 93 283 q 135 222 110 222 l 683 222 m 683 533 q 719 574 708 533 q 725 614 725 594 q 719 654 725 633 q 683 694 708 694 l 135 694 q 99 654 110 694 q 93 614 93 633 q 99 574 93 594 q 135 533 110 533 l 683 533 "},">":{"ha":625,"x_min":71,"x_max":549,"o":"m 535 492 l 213 876 q 188 885 203 885 q 144 872 174 885 q 95 833 114 858 q 76 797 76 808 q 85 776 76 785 l 365 465 l 81 172 q 72 152 72 164 q 91 115 72 140 q 140 76 110 89 q 184 63 169 63 q 208 72 199 63 l 529 428 q 549 463 549 447 q 535 492 549 478 "},"?":{"ha":811,"x_min":92,"x_max":708,"o":"m 315 275 q 408 283 357 275 q 460 307 460 290 l 460 349 q 547 475 460 392 q 620 547 583 508 q 683 635 657 585 q 708 739 708 686 q 631 921 708 854 q 397 988 553 988 q 202 956 294 988 q 99 888 110 924 q 92 855 92 872 q 100 815 92 838 q 174 696 121 749 q 334 749 254 749 q 414 679 414 749 q 381 596 414 642 q 310 514 349 550 q 206 354 206 417 l 206 301 q 315 275 206 275 m 451 -6 l 451 215 q 337 222 451 222 q 222 211 222 222 l 222 -7 q 337 -14 222 -14 q 451 -6 451 -14 "},"@":{"ha":1204,"x_min":54,"x_max":1093,"o":"m 843 -40 q 822 25 843 -11 q 801 51 808 44 q 604 26 726 26 q 208 357 208 26 q 323 672 208 551 q 633 793 438 793 q 846 715 765 793 q 926 503 926 636 q 897 351 926 401 q 867 314 886 331 q 825 297 847 297 l 767 300 q 806 606 806 582 q 793 653 806 631 q 658 696 768 696 q 421 592 528 696 q 314 336 314 488 q 362 193 314 240 q 499 146 410 146 q 654 203 589 146 q 715 163 674 181 q 799 144 756 144 q 1008 235 922 144 q 1093 508 1093 325 q 969 813 1093 692 q 642 933 846 933 q 216 773 378 933 q 54 350 54 613 q 192 1 54 124 q 568 -122 331 -122 q 843 -40 843 -122 m 604 532 q 619 511 622 532 l 592 313 q 554 300 581 300 q 508 351 508 300 q 542 478 511 424 q 604 532 574 532 "},"A":{"ha":910,"x_min":21,"x_max":888,"o":"m 722 -3 q 824 3 760 -3 q 888 18 888 8 l 647 960 q 457 971 647 971 q 267 960 267 971 l 21 19 q 53 8 21 15 q 151 0 85 0 q 285 43 276 0 l 325 215 l 546 215 l 592 36 q 722 -3 601 -3 m 360 392 l 435 679 l 443 679 l 506 392 l 360 392 "},"B":{"ha":825,"x_min":85,"x_max":786,"o":"m 751 721 q 426 972 751 972 l 110 972 q 90 967 94 972 q 85 947 85 963 l 85 58 q 100 16 85 32 q 139 0 115 0 l 467 0 q 703 65 621 0 q 786 242 786 131 q 740 415 786 354 q 626 501 694 476 q 751 721 751 576 m 351 747 l 381 747 q 466 725 440 747 q 492 654 492 703 q 358 565 492 565 l 351 565 l 351 747 m 351 401 l 381 401 q 466 382 440 401 q 492 314 492 363 q 464 243 492 265 q 376 221 436 221 l 351 221 l 351 401 "},"C":{"ha":779,"x_min":42,"x_max":742,"o":"m 467 985 q 163 850 285 985 q 42 480 42 715 q 160 115 42 244 q 461 -14 278 -14 q 658 18 575 -14 q 742 104 742 50 q 722 183 742 132 q 680 265 703 233 q 649 296 657 296 q 638 293 640 296 q 581 267 621 276 q 510 258 542 258 q 381 315 432 258 q 331 490 331 372 q 380 664 331 607 q 510 721 429 721 q 566 712 533 721 q 608 695 599 703 q 624 688 617 688 q 685 759 649 688 q 722 879 722 831 q 645 956 722 928 q 467 985 568 985 "},"D":{"ha":856,"x_min":69,"x_max":814,"o":"m 69 64 q 140 0 69 0 l 378 0 q 814 511 814 0 q 699 861 814 750 q 364 972 585 972 l 132 972 q 87 952 104 972 q 69 897 69 932 l 69 64 m 336 708 l 350 708 q 480 668 439 708 q 521 495 521 628 q 481 306 521 363 q 365 249 442 249 q 340 256 344 249 q 336 293 336 264 l 336 708 "},"E":{"ha":685,"x_min":69,"x_max":633,"o":"m 521 586 l 342 586 l 342 726 l 599 726 q 628 849 628 726 q 599 972 628 972 l 101 972 q 69 936 69 972 l 69 43 q 122 0 69 0 l 597 0 q 625 47 617 0 q 633 124 633 94 q 629 181 633 154 q 597 242 621 242 l 342 242 l 342 381 l 518 381 q 541 420 535 381 q 547 489 547 460 q 521 586 547 586 "},"F":{"ha":656,"x_min":63,"x_max":614,"o":"m 589 972 l 99 972 q 72 965 81 972 q 63 936 63 958 l 63 17 q 131 -11 63 -3 l 196 -14 q 283 -8 231 -14 q 335 18 335 -1 l 335 353 l 506 353 q 528 460 528 353 q 504 568 528 568 l 335 568 l 335 726 l 589 726 q 613 849 613 726 q 589 972 613 972 "},"G":{"ha":863,"x_min":42,"x_max":800,"o":"m 583 290 q 512 254 583 254 q 385 315 440 254 q 331 492 331 375 q 384 664 331 608 q 524 719 438 719 q 599 708 560 719 q 651 685 638 696 q 676 675 664 675 q 714 703 688 675 q 761 787 740 731 q 782 874 782 843 q 781 915 782 904 q 673 966 751 947 q 497 985 594 985 q 163 850 283 985 q 42 500 42 715 q 165 117 42 247 q 490 -14 289 -14 q 683 5 599 -14 q 794 43 767 24 l 800 478 q 747 507 800 499 l 693 511 q 626 505 667 511 q 586 479 586 499 l 583 290 "},"H":{"ha":894,"x_min":69,"x_max":825,"o":"m 825 24 l 825 942 q 756 969 825 961 l 685 972 q 614 969 650 972 q 544 942 544 961 l 544 618 l 350 618 l 350 944 q 210 974 350 974 q 69 944 69 974 l 69 24 q 210 0 69 0 q 350 24 350 0 l 350 343 l 544 343 l 544 24 q 685 0 544 0 q 825 24 825 0 "},"I":{"ha":596,"x_min":24,"x_max":572,"o":"m 161 239 l 65 239 q 33 179 42 239 q 28 119 28 150 q 33 60 28 89 q 65 0 42 0 l 533 0 q 567 60 557 0 q 572 119 572 89 q 567 179 572 150 q 533 239 557 239 l 436 239 l 436 733 l 529 733 q 561 793 553 733 q 567 853 567 822 q 561 913 567 883 q 529 972 553 972 l 63 972 q 29 913 39 972 q 25 853 25 883 q 29 793 25 822 q 63 733 39 733 l 161 733 l 161 239 "},"J":{"ha":642,"x_min":13,"x_max":590,"o":"m 13 125 q 83 22 13 60 q 281 -15 154 -15 q 499 56 408 -15 q 590 263 590 126 l 590 918 q 576 956 590 940 q 535 972 563 972 l 204 972 q 171 913 181 972 q 167 853 167 883 q 171 793 167 822 q 204 733 181 733 l 315 733 l 315 379 q 238 260 313 282 l 194 253 q 88 292 140 253 q 36 219 60 272 q 13 125 13 165 "},"K":{"ha":861,"x_min":69,"x_max":860,"o":"m 347 19 l 347 354 l 369 354 l 528 51 q 597 -6 553 6 l 631 -8 q 683 1 657 -8 q 833 89 769 33 q 860 113 860 110 l 579 500 l 821 936 q 822 942 822 939 q 628 974 813 974 q 517 954 526 974 l 347 599 l 347 954 q 208 978 347 978 q 69 954 69 978 l 69 22 q 139 3 69 8 l 217 -1 q 347 19 347 -1 "},"L":{"ha":604,"x_min":56,"x_max":592,"o":"m 56 82 q 74 25 56 50 q 122 0 92 0 l 550 0 q 586 67 575 0 q 590 135 590 101 q 586 200 590 168 q 551 265 576 265 l 338 265 l 338 946 q 197 975 338 975 q 56 946 56 975 l 56 82 "},"M":{"ha":1260,"x_min":69,"x_max":1192,"o":"m 1042 -1 q 1138 6 1083 -1 q 1192 28 1192 13 l 1151 939 q 1080 966 1151 958 q 957 974 1008 974 q 765 938 778 974 l 629 499 l 474 936 q 393 966 465 958 q 271 974 321 974 q 101 940 101 974 l 69 38 q 135 3 68 13 q 201 -1 167 -1 q 286 6 235 -1 q 339 35 338 14 l 358 589 l 533 18 q 625 3 536 3 q 719 19 714 3 l 889 583 l 918 26 q 1042 -1 918 -1 "},"N":{"ha":900,"x_min":69,"x_max":831,"o":"m 831 31 l 831 946 q 701 972 831 972 q 572 946 572 972 l 572 510 l 350 938 q 280 966 338 958 q 179 974 222 974 q 69 953 69 974 l 69 24 q 198 -1 69 -1 q 326 24 326 -1 l 326 456 l 558 22 q 700 1 569 1 q 831 31 831 1 "},"O":{"ha":967,"x_min":42,"x_max":925,"o":"m 483 -14 q 801 109 678 -14 q 925 484 925 232 q 804 860 925 736 q 487 985 683 985 q 166 858 290 985 q 42 487 42 732 q 165 114 42 242 q 385 -14 288 -14 q 483 -14 483 -14 m 483 718 q 595 658 550 718 q 640 488 640 599 q 597 317 640 376 q 483 257 553 257 q 369 316 413 257 q 326 485 326 375 q 372 657 326 596 q 450 718 417 718 q 483 718 483 718 "},"P":{"ha":792,"x_min":64,"x_max":739,"o":"m 190 -3 q 280 3 228 -3 q 332 26 332 10 l 332 275 q 526 308 443 275 q 653 397 610 342 q 739 642 739 508 q 648 888 739 803 q 351 972 557 972 l 107 972 q 64 925 64 972 l 64 25 q 190 -3 64 -3 m 332 731 l 361 731 q 442 707 419 731 q 465 628 465 683 q 432 542 465 572 q 350 511 399 511 l 332 511 l 332 731 "},"Q":{"ha":981,"x_min":42,"x_max":925,"o":"m 42 485 q 138 148 42 275 q 389 -8 233 21 l 592 -233 q 628 -249 606 -249 q 694 -227 650 -249 q 769 -165 738 -206 q 800 -110 800 -125 q 792 -90 800 -96 l 644 11 q 850 174 775 56 q 925 485 925 292 q 804 860 925 736 q 487 985 683 985 q 166 858 290 985 q 42 485 42 732 m 483 718 q 595 658 550 718 q 640 488 640 599 q 597 317 640 376 q 483 257 553 257 q 369 316 413 257 q 326 485 326 375 q 372 657 326 596 q 450 718 417 718 q 483 718 483 718 "},"R":{"ha":819,"x_min":69,"x_max":799,"o":"m 335 19 l 335 335 l 378 335 l 508 31 q 589 -8 535 -8 q 726 51 643 -8 q 799 128 788 94 l 624 419 q 718 531 685 461 q 751 688 751 601 q 386 972 751 972 l 121 972 q 69 924 69 972 l 69 18 q 203 -3 69 -3 q 335 19 335 -3 m 335 726 l 364 726 q 448 702 422 726 q 474 628 474 678 q 342 518 474 518 l 335 518 l 335 726 "},"S":{"ha":738,"x_min":40,"x_max":693,"o":"m 106 339 q 61 265 82 321 q 40 151 40 208 q 90 54 40 94 q 208 0 140 14 q 358 -14 275 -14 q 611 83 529 -11 q 693 326 693 178 q 619 510 693 440 q 552 563 583 543 q 494 597 521 583 q 446 619 467 610 q 414 635 425 629 q 363 689 363 658 q 433 739 363 739 q 592 693 503 739 q 635 776 604 701 q 665 899 665 850 q 665 907 665 903 q 578 963 663 942 q 393 985 493 985 q 155 901 246 985 q 64 694 64 817 q 119 493 64 572 q 176 437 139 464 q 235 398 213 410 q 301 365 257 386 q 363 328 346 344 q 379 292 379 313 q 320 246 379 246 q 197 282 261 246 q 106 339 132 318 "},"T":{"ha":697,"x_min":7,"x_max":688,"o":"m 488 22 l 488 719 l 650 719 q 683 783 674 719 q 688 846 688 814 q 683 908 688 878 q 650 972 674 972 l 46 972 q 13 908 22 972 q 8 846 8 878 q 13 783 8 814 q 46 719 22 719 l 213 719 l 213 22 q 350 -6 213 -6 q 488 22 488 -6 "},"U":{"ha":872,"x_min":42,"x_max":825,"o":"m 524 944 l 524 317 q 497 271 524 286 q 436 256 469 256 q 372 272 403 256 q 343 317 343 289 l 343 943 q 192 971 343 971 q 42 943 42 971 l 42 328 q 153 78 42 171 q 444 -14 265 -14 q 724 76 622 -14 q 825 307 825 165 l 825 944 q 674 972 825 972 q 524 944 524 972 "},"V":{"ha":918,"x_min":15,"x_max":903,"o":"m 15 954 l 258 29 q 360 2 264 10 q 575 7 457 -6 q 657 36 651 14 l 903 956 q 842 968 903 963 q 740 974 781 974 q 568 933 576 974 l 456 322 l 336 933 q 175 974 329 974 q 76 967 136 974 q 15 954 15 961 "},"W":{"ha":1324,"x_min":29,"x_max":1294,"o":"m 29 958 l 172 35 q 269 0 178 10 l 358 -4 q 453 0 406 -4 q 550 36 544 11 l 653 417 l 747 35 q 928 -4 756 -4 q 1047 6 974 -4 q 1126 36 1121 15 l 1294 957 q 1153 976 1299 976 q 1054 971 1115 976 q 990 950 993 965 l 910 360 l 765 956 q 657 975 758 975 q 549 954 556 975 l 401 363 l 333 947 q 169 974 329 974 q 29 958 25 974 "},"X":{"ha":949,"x_min":25,"x_max":925,"o":"m 585 935 l 475 694 l 379 928 q 188 978 363 978 q 83 972 144 978 q 25 958 21 965 l 250 500 l 33 19 q 88 4 28 10 q 188 -1 147 -1 q 365 38 351 -1 l 460 311 l 564 46 q 757 -1 581 -1 q 865 5 801 -1 q 925 18 929 11 l 681 478 l 917 958 q 858 970 917 964 q 758 976 799 976 q 585 935 601 976 "},"Y":{"ha":854,"x_min":-15,"x_max":876,"o":"m 553 926 l 436 643 l 335 926 q 147 976 318 976 q 42 969 104 976 q -15 953 -21 961 l 283 367 l 283 36 q 360 1 283 11 q 435 -3 397 -3 q 511 3 472 -3 q 588 36 588 13 l 588 375 l 876 956 q 826 969 881 964 q 731 975 771 975 q 553 926 571 975 "},"Z":{"ha":782,"x_min":51,"x_max":746,"o":"m 106 719 l 382 719 l 57 215 q 53 189 53 210 q 85 84 53 168 q 131 0 118 0 l 671 0 q 718 69 703 0 q 726 143 726 108 q 721 210 726 178 q 678 276 708 276 q 675 276 676 276 l 421 276 l 746 769 q 740 818 746 785 q 631 972 715 972 l 117 972 q 75 908 88 972 q 68 842 68 874 q 72 783 68 810 q 106 719 82 719 "},"[":{"ha":535,"x_min":111,"x_max":493,"o":"m 151 1108 q 111 1068 111 1108 l 111 -121 q 151 -161 111 -161 l 451 -161 q 488 -121 476 -161 q 493 -81 493 -100 q 488 -40 493 -61 q 451 0 476 0 l 272 0 l 272 947 l 451 947 q 488 988 476 947 q 493 1028 493 1008 q 488 1068 493 1047 q 451 1108 476 1108 l 151 1108 "},"\\":{"ha":815,"x_min":24,"x_max":819,"o":"m 815 -50 l 167 1076 q 148 1090 158 1089 q 127 1090 138 1090 q 97 1081 117 1090 q 31 1031 43 1056 q 24 1009 24 1017 q 28 994 24 1001 l 676 -132 q 714 -147 683 -147 q 744 -137 724 -147 q 811 -86 797 -114 q 818 -64 818 -72 q 815 -50 818 -56 "},"]":{"ha":535,"x_min":42,"x_max":424,"o":"m 83 1108 q 47 1068 58 1108 q 42 1028 42 1047 q 47 988 42 1008 q 83 947 58 947 l 263 947 l 263 0 l 83 0 q 47 -40 58 0 q 42 -81 42 -61 q 47 -121 42 -100 q 83 -161 58 -161 l 383 -161 q 424 -121 424 -161 l 424 1068 q 383 1108 424 1108 l 83 1108 "},"^":{"ha":954,"x_min":61,"x_max":883,"o":"m 875 621 l 490 943 q 461 957 476 957 q 426 938 446 957 l 71 617 q 61 592 61 607 q 74 548 61 578 q 113 499 88 518 q 151 481 139 481 q 171 489 163 481 l 464 774 l 775 493 q 795 485 783 485 q 832 503 807 485 q 870 552 857 522 q 883 597 883 582 q 875 621 883 611 "},"_":{"ha":883,"x_min":65,"x_max":808,"o":"m 767 -208 q 803 -168 792 -208 q 808 -128 808 -147 q 803 -87 808 -108 q 767 -47 792 -47 l 107 -47 q 71 -87 82 -47 q 65 -128 65 -108 q 71 -168 65 -147 q 107 -208 82 -208 l 767 -208 "},"`":{"ha":486,"x_min":99,"x_max":406,"o":"m 347 735 q 382 768 360 735 q 404 843 404 801 q 396 863 404 854 q 165 988 169 988 q 125 947 151 988 q 99 860 99 906 q 106 840 99 847 q 347 735 344 735 "},"a":{"ha":718,"x_min":19,"x_max":701,"o":"m 150 504 q 300 526 247 526 q 355 516 343 526 q 367 469 367 506 l 367 456 l 290 456 q 19 229 19 456 q 89 58 19 131 q 260 -14 158 -14 q 458 67 394 -14 q 490 26 469 43 q 611 -14 536 -14 q 677 33 653 -14 q 701 129 701 81 q 688 206 701 178 q 651 233 675 233 l 604 233 l 604 453 q 547 644 604 579 q 352 708 490 708 q 135 674 214 708 q 111 617 111 661 q 150 504 111 574 m 261 249 q 328 314 261 314 l 367 314 l 367 207 q 320 186 346 186 q 278 202 294 186 q 261 249 261 218 "},"b":{"ha":722,"x_min":69,"x_max":686,"o":"m 69 968 l 69 60 q 342 -14 178 -14 q 597 87 507 -14 q 686 374 686 188 q 394 708 686 708 q 310 697 369 708 l 310 967 q 190 985 310 985 q 69 968 69 985 m 356 492 q 433 349 433 492 q 394 219 433 247 q 351 203 372 203 q 310 211 329 203 l 310 476 q 356 492 332 492 "},"c":{"ha":589,"x_min":36,"x_max":576,"o":"m 290 344 q 314 453 290 419 q 370 486 338 486 q 457 432 403 486 q 483 415 472 415 q 499 417 493 415 q 564 519 539 431 q 575 592 575 563 q 563 638 575 622 q 359 708 506 708 q 124 607 213 708 q 36 341 36 506 q 126 81 36 176 q 343 -14 215 -14 q 544 32 471 -14 q 551 66 551 40 q 538 163 551 92 q 504 235 525 235 q 393 208 460 208 q 290 344 290 208 "},"d":{"ha":785,"x_min":36,"x_max":758,"o":"m 414 964 l 414 700 q 338 708 375 708 q 122 615 208 708 q 36 349 36 521 q 118 82 36 178 q 315 -14 200 -14 q 507 60 431 -14 l 519 42 q 567 4 532 22 q 649 -14 603 -14 q 738 47 710 -14 q 757 123 757 92 q 754 172 757 154 q 708 235 743 235 l 660 235 l 660 967 q 610 980 660 975 q 524 985 561 985 q 414 964 414 985 m 368 486 q 414 472 390 486 l 414 236 q 362 213 389 213 q 313 244 335 213 q 290 346 290 275 q 368 486 290 486 "},"e":{"ha":675,"x_min":36,"x_max":647,"o":"m 588 38 q 614 91 614 50 q 581 192 614 132 q 568 211 569 213 q 383 167 481 167 q 316 183 339 167 q 293 240 293 199 l 389 240 q 647 465 647 240 q 572 638 647 567 q 357 708 496 708 q 127 607 218 708 q 36 340 36 506 q 131 80 36 174 q 363 -14 225 -14 q 588 38 500 -14 m 414 439 q 368 392 414 392 l 293 392 l 293 435 q 312 481 293 465 q 357 497 331 497 q 414 439 414 497 "},"f":{"ha":521,"x_min":28,"x_max":558,"o":"m 117 510 l 117 17 q 240 0 117 0 q 363 17 363 0 l 363 508 l 451 508 q 483 606 483 508 q 458 694 483 694 l 343 694 l 343 724 q 397 796 343 796 q 494 767 447 796 q 535 832 511 775 q 558 915 558 889 q 547 944 558 940 q 351 985 463 985 q 178 928 240 985 q 117 725 117 872 l 117 694 l 49 694 q 28 602 28 694 q 49 510 28 510 l 117 510 "},"g":{"ha":717,"x_min":36,"x_max":654,"o":"m 318 0 q 414 11 354 0 l 414 -31 q 338 -85 414 -85 q 139 -44 232 -85 q 110 -175 110 -86 q 124 -235 110 -201 q 357 -268 226 -268 q 571 -213 488 -268 q 654 -56 654 -158 l 654 636 q 390 707 550 707 q 133 610 229 707 q 36 344 36 514 q 110 87 36 174 q 318 0 183 0 m 382 481 q 414 476 397 481 l 414 213 q 372 208 396 208 q 325 226 349 208 q 289 340 289 253 q 382 481 289 481 "},"h":{"ha":696,"x_min":63,"x_max":640,"o":"m 294 10 l 294 460 q 365 489 335 489 q 410 421 410 489 l 410 13 q 532 -1 410 3 q 640 11 640 -1 l 640 442 q 579 651 640 594 q 413 707 518 707 q 294 683 372 707 l 294 961 q 178 986 294 986 q 106 982 149 986 q 63 968 63 978 l 63 17 q 178 -3 63 -3 q 294 10 294 -3 "},"i":{"ha":379,"x_min":63,"x_max":317,"o":"m 317 8 l 317 690 q 190 699 317 699 q 63 689 63 699 l 63 7 q 190 -3 63 -3 q 317 8 317 -3 m 317 772 l 317 976 q 190 985 317 985 q 63 971 63 985 l 63 771 q 190 763 63 763 q 317 772 317 763 "},"j":{"ha":376,"x_min":-164,"x_max":314,"o":"m 63 49 q 24 -49 63 -17 q -115 -81 -14 -81 q -150 -79 -137 -81 q -164 -149 -164 -107 q 15 -274 -164 -274 q 228 -213 143 -274 q 314 -50 314 -153 l 314 690 q 188 697 314 697 q 63 689 63 697 l 63 49 m 63 771 q 188 763 63 763 q 314 772 314 763 l 314 976 q 188 985 314 985 q 63 971 63 985 l 63 771 "},"k":{"ha":738,"x_min":63,"x_max":729,"o":"m 63 961 l 63 8 q 184 -8 63 -8 q 306 10 306 -8 l 306 317 l 443 8 q 586 -4 453 -4 q 677 -1 622 -4 q 729 8 732 3 l 521 399 l 701 693 q 563 707 671 707 q 444 686 454 707 l 307 432 l 307 965 q 189 983 307 979 q 63 961 63 983 "},"l":{"ha":378,"x_min":63,"x_max":315,"o":"m 315 11 l 315 963 q 197 976 315 972 q 63 956 63 976 l 63 10 q 174 -1 63 0 q 315 11 315 -1 "},"m":{"ha":1094,"x_min":26,"x_max":1039,"o":"m 692 7 l 692 453 q 756 483 731 483 q 801 414 801 483 l 801 10 q 920 -3 801 -3 q 1039 7 1039 -3 l 1039 429 q 810 708 1039 708 q 629 643 704 708 q 460 708 565 708 q 269 632 356 708 q 213 682 260 656 q 117 708 167 708 q 44 647 67 708 q 28 560 28 603 q 74 464 28 464 l 108 464 l 108 10 q 227 -6 108 -6 q 346 8 346 -6 l 346 453 q 408 483 385 483 q 454 414 454 483 l 454 10 q 573 -3 454 -3 q 692 7 692 -3 "},"n":{"ha":765,"x_min":28,"x_max":710,"o":"m 353 8 l 353 454 q 385 472 360 460 q 424 483 410 483 q 472 414 472 483 l 472 13 q 591 -4 472 -4 q 710 13 710 -4 l 710 429 q 656 643 710 578 q 481 708 601 708 q 272 633 360 708 q 217 683 258 658 q 122 708 175 708 q 44 647 69 708 q 28 561 28 604 q 31 525 28 543 q 78 464 42 464 l 114 464 l 114 14 q 253 -1 114 3 q 353 8 353 -1 "},"o":{"ha":713,"x_min":36,"x_max":676,"o":"m 123 82 q 357 -14 210 -14 q 590 82 504 -14 q 676 347 676 178 q 590 613 676 517 q 357 708 504 708 q 123 613 210 708 q 36 347 36 517 q 80 130 36 178 q 123 82 123 82 m 358 476 q 436 349 436 476 q 358 221 436 221 q 279 349 279 221 q 318 476 279 476 q 358 476 358 476 "},"p":{"ha":771,"x_min":26,"x_max":735,"o":"m 361 -253 l 361 0 q 460 -6 406 -6 q 657 91 579 -6 q 735 363 735 188 q 657 623 735 539 q 471 707 579 707 q 269 635 363 707 q 256 653 269 638 q 209 688 243 669 q 135 707 175 707 q 46 646 74 707 q 26 574 26 604 q 31 524 26 543 q 76 463 43 463 l 124 463 l 124 -253 q 242 -262 124 -262 q 361 -253 361 -262 m 418 464 q 490 346 490 464 q 433 200 490 206 q 410 200 425 200 q 372 203 396 200 l 372 449 q 418 464 394 464 "},"q":{"ha":710,"x_min":36,"x_max":647,"o":"m 314 -6 q 408 6 353 -6 l 408 -250 q 528 -268 408 -268 q 647 -250 647 -268 l 647 635 q 379 708 539 708 q 128 615 219 708 q 36 357 36 522 q 111 93 36 192 q 314 -6 186 -6 m 317 464 q 363 483 338 483 q 408 478 388 483 l 408 219 q 365 213 388 213 q 322 226 343 213 q 285 344 285 251 q 317 464 285 436 "},"r":{"ha":550,"x_min":28,"x_max":543,"o":"m 367 1 l 367 389 q 419 472 367 472 q 460 462 438 472 q 486 451 483 451 q 503 476 489 451 q 530 557 517 501 q 543 634 543 613 q 539 667 543 656 q 442 708 522 708 q 341 674 390 708 q 263 583 292 640 q 221 670 263 632 q 117 708 179 708 q 28 558 28 708 q 41 491 28 518 q 76 464 54 464 l 114 464 l 114 3 q 240 -8 114 -6 q 367 1 367 -8 "},"s":{"ha":625,"x_min":35,"x_max":590,"o":"m 92 250 q 53 193 72 236 q 35 111 35 150 q 115 19 35 53 q 294 -14 196 -14 q 517 55 443 -14 q 590 235 590 124 q 524 372 590 319 q 466 411 492 397 q 401 442 440 425 q 348 472 363 460 q 333 500 333 483 q 371 526 333 526 q 500 493 440 526 q 541 547 511 497 q 571 628 571 597 q 498 686 571 664 q 320 708 425 708 q 140 654 215 708 q 65 497 65 600 q 239 265 65 336 q 311 211 311 232 q 269 182 311 182 q 92 250 204 182 "},"t":{"ha":511,"x_min":26,"x_max":504,"o":"m 382 8 l 382 500 l 481 500 q 504 597 504 500 q 481 694 504 694 l 363 694 l 361 733 l 361 822 q 244 844 361 844 q 126 817 126 844 l 126 694 l 53 694 q 33 658 38 694 q 28 597 28 622 q 56 501 28 501 l 126 501 l 126 10 q 265 -8 126 -3 q 382 8 382 -8 "},"u":{"ha":756,"x_min":56,"x_max":735,"o":"m 56 686 l 56 276 q 119 53 56 121 q 318 -14 183 -14 q 500 61 415 -14 l 501 63 q 639 -14 546 -14 q 714 47 686 -14 q 733 140 733 94 q 686 231 733 231 l 650 231 l 650 686 q 532 700 650 700 q 414 686 414 700 l 414 240 q 339 211 372 211 q 294 281 294 211 l 294 686 q 175 701 294 701 q 56 686 56 701 "},"v":{"ha":724,"x_min":8,"x_max":715,"o":"m 8 690 l 188 17 q 354 -4 199 -4 q 519 10 510 -4 l 715 689 q 585 700 719 700 q 447 688 451 700 l 372 222 l 272 694 q 138 701 272 701 q 8 690 4 701 "},"w":{"ha":1044,"x_min":15,"x_max":1029,"o":"m 783 688 l 733 233 l 619 692 q 528 700 617 700 q 436 692 439 700 l 321 228 l 257 697 q 135 703 257 701 q 15 694 11 703 l 139 18 q 298 -7 143 -7 q 457 14 453 -7 l 528 325 l 585 14 q 739 -8 589 -8 q 893 14 889 -8 l 1029 689 q 860 700 1032 700 q 783 688 783 700 "},"x":{"ha":774,"x_min":21,"x_max":753,"o":"m 479 690 l 389 457 l 315 682 q 261 695 310 690 q 159 700 213 700 q 63 693 106 700 q 21 678 21 686 q 185 333 21 676 l 28 14 q 82 0 22 6 q 218 -6 142 -6 q 297 4 294 -6 l 383 246 l 458 14 q 551 -4 464 -4 q 669 1 586 -4 q 753 15 753 7 q 582 335 753 15 l 751 686 q 549 701 757 701 q 479 690 485 701 "},"y":{"ha":746,"x_min":14,"x_max":731,"o":"m 14 688 l 250 56 l 129 -236 q 190 -248 126 -243 q 328 -253 254 -253 q 404 -244 403 -253 l 731 685 q 554 703 739 703 q 468 692 474 703 l 372 361 l 272 689 q 141 703 268 703 q 14 688 14 703 "},"z":{"ha":631,"x_min":35,"x_max":596,"o":"m 60 472 l 303 481 l 38 171 q 35 153 35 168 q 64 69 35 139 q 114 0 93 0 l 558 0 q 582 49 575 0 q 589 135 589 97 q 567 233 589 233 l 325 217 l 594 556 q 596 565 596 557 q 563 633 596 572 q 519 694 529 694 l 76 694 q 50 532 50 694 q 60 472 50 472 "},"{":{"ha":503,"x_min":42,"x_max":393,"o":"m 313 281 q 232 438 313 360 q 313 621 313 518 l 313 968 q 383 1083 313 1013 q 390 1101 390 1090 q 375 1131 390 1113 q 282 1176 333 1176 q 254 1169 267 1176 q 151 989 151 1083 l 151 635 q 64 518 151 551 q 42 443 42 508 q 64 365 42 378 q 126 314 101 349 q 151 246 151 279 l 151 -87 q 168 -179 151 -137 q 202 -241 185 -221 q 249 -289 219 -261 q 276 -297 258 -297 q 353 -266 315 -297 q 392 -222 392 -235 q 383 -201 392 -208 q 313 -87 313 -144 l 313 281 "},"|":{"ha":872,"x_min":351,"x_max":513,"o":"m 513 1240 q 472 1276 513 1265 l 432 1282 q 392 1276 411 1282 q 351 1240 351 1265 l 351 -264 q 392 -300 351 -289 l 432 -306 q 472 -300 453 -306 q 513 -264 513 -289 l 513 1240 "},"}":{"ha":503,"x_min":111,"x_max":461,"o":"m 192 -87 q 119 -201 192 -143 q 113 -217 113 -207 q 157 -272 113 -244 q 222 -299 201 -299 q 254 -289 243 -299 q 303 -241 286 -260 q 338 -180 319 -222 q 356 -87 356 -137 l 356 246 q 378 315 356 281 q 439 365 401 349 q 461 456 461 378 q 439 518 461 508 q 356 635 356 550 l 356 989 q 249 1169 356 1081 q 219 1176 235 1176 q 178 1168 204 1176 q 132 1137 151 1160 q 113 1102 113 1114 q 119 1083 113 1090 q 190 968 190 1013 l 190 621 q 271 438 190 518 q 192 281 192 361 l 192 -87 "},"~":{"ha":638,"x_min":29,"x_max":574,"o":"m 103 314 q 124 329 110 318 q 143 344 138 340 q 159 354 149 347 q 177 363 169 361 q 194 368 185 365 q 219 371 204 371 q 297 343 233 371 q 414 315 361 315 q 424 315 418 315 q 508 344 464 315 q 574 431 574 390 q 544 483 574 444 q 499 522 515 522 q 492 521 494 522 q 396 467 447 468 q 313 492 367 467 q 215 518 258 518 q 35 431 122 518 q 31 413 31 426 q 53 360 31 400 q 103 314 76 321 "},"¡":{"ha":399,"x_min":63,"x_max":319,"o":"m 90 403 l 63 -265 q 190 -275 63 -275 q 317 -264 317 -275 l 289 404 q 190 411 289 411 q 90 403 90 411 m 319 486 l 319 690 q 191 699 319 699 q 63 685 63 699 l 63 485 q 191 476 63 476 q 319 486 319 476 "},"¢":{"ha":733,"x_min":49,"x_max":660,"o":"m 385 982 l 385 894 q 141 781 233 882 q 49 492 49 679 q 140 202 49 306 q 385 90 232 99 l 385 6 q 424 -24 385 -24 q 463 6 463 -24 l 463 92 q 604 127 549 97 q 660 202 660 157 q 640 297 660 247 q 593 385 621 347 q 463 354 539 360 l 463 640 q 569 615 533 636 l 592 644 q 635 719 614 672 q 657 802 657 765 q 600 864 657 839 q 463 894 543 889 l 463 982 q 424 1008 463 1008 q 385 982 385 1008 m 385 638 l 385 357 q 285 499 285 379 q 385 638 285 618 "},"£":{"ha":681,"x_min":40,"x_max":642,"o":"m 540 415 q 568 474 568 415 q 540 532 568 532 l 388 532 q 325 643 325 589 q 457 728 325 728 q 582 699 526 728 q 619 781 599 713 q 639 894 639 850 q 572 962 639 938 q 418 986 506 986 q 72 749 72 986 q 83 669 72 701 q 94 638 89 651 q 108 607 99 625 q 123 581 118 589 q 140 555 128 574 q 154 532 151 536 l 71 532 q 44 503 53 532 q 42 474 42 489 q 44 444 42 458 q 72 415 53 415 l 190 415 q 65 181 179 294 q 51 143 51 167 q 65 86 51 119 q 126 0 93 19 l 601 0 q 636 60 626 0 q 640 119 640 89 q 636 178 640 149 q 600 238 625 238 l 361 238 q 413 415 404 303 l 540 415 "},"¤":{"ha":1011,"x_min":121,"x_max":863,"o":"m 657 221 l 767 111 q 782 104 772 104 q 811 117 792 104 q 847 156 831 129 q 851 194 864 182 l 742 304 q 794 472 794 382 q 744 636 794 563 l 857 747 q 863 763 863 753 q 849 794 863 772 q 816 827 836 815 q 786 839 796 839 q 771 832 776 839 l 660 721 q 492 772 583 772 q 326 719 401 772 l 214 832 q 197 839 207 839 q 167 826 188 839 q 133 792 146 813 q 121 763 121 772 q 128 747 121 753 l 242 633 q 194 472 194 561 q 244 306 194 383 l 135 196 q 138 156 122 183 q 174 117 153 129 q 204 104 194 104 q 221 111 214 104 l 331 221 q 492 171 404 171 q 657 221 579 171 m 376 589 q 496 639 426 639 q 610 590 563 639 q 658 471 658 540 q 610 353 658 401 q 493 306 563 306 q 375 354 424 306 q 326 472 326 406 q 351 564 326 539 q 376 589 376 589 "},"¥":{"ha":915,"x_min":0,"x_max":901,"o":"m 788 296 q 818 318 810 296 q 822 340 822 329 q 817 363 822 351 q 788 385 808 385 l 601 385 l 601 469 l 788 469 q 818 494 810 469 q 822 520 822 507 q 817 547 822 533 q 788 572 808 572 l 650 572 l 901 969 q 853 982 906 976 q 767 988 801 988 q 585 940 610 988 l 460 722 l 333 940 q 161 988 304 988 q 60 983 126 988 q 0 967 -7 978 l 253 572 l 126 572 q 94 521 94 572 q 126 469 94 469 l 297 469 l 297 385 l 126 385 q 94 340 94 385 q 126 296 94 296 l 297 296 l 297 24 q 374 -11 297 -1 q 449 -15 411 -15 q 525 -11 486 -15 q 601 24 601 0 l 601 296 l 788 296 "},"¦":{"ha":576,"x_min":213,"x_max":374,"o":"m 374 268 q 333 304 374 293 l 293 310 q 253 304 272 310 q 213 268 213 293 l 213 -264 q 253 -300 213 -289 l 293 -306 q 333 -300 314 -306 q 374 -264 374 -289 l 374 268 m 374 988 q 333 1024 374 1013 l 293 1029 q 253 1024 272 1029 q 213 988 213 1013 l 213 493 q 253 457 213 468 l 293 451 q 333 457 314 451 q 374 493 374 468 l 374 988 "},"§":{"ha":857,"x_min":56,"x_max":769,"o":"m 126 33 q 78 -35 100 17 q 56 -138 56 -86 q 110 -228 56 -190 q 403 -290 203 -290 q 681 -208 592 -287 q 769 0 769 -129 q 737 96 769 47 q 661 172 704 144 q 769 369 769 242 q 730 472 769 425 q 633 547 690 518 q 519 601 576 576 q 383 711 383 661 q 458 757 383 757 q 658 719 533 757 q 706 796 672 726 q 739 915 739 865 q 643 967 736 947 q 442 986 550 986 q 180 908 278 986 q 82 704 82 831 q 190 517 88 582 q 82 317 82 444 q 120 197 82 249 q 213 115 158 144 q 320 64 267 86 q 412 22 374 42 q 450 -18 450 3 q 387 -60 450 -60 q 245 -25 324 -60 q 126 33 167 10 m 517 273 q 463 257 503 257 q 375 291 424 257 q 326 361 326 325 q 386 421 326 421 q 480 387 428 421 q 532 321 532 353 q 525 281 532 289 q 517 273 517 273 "},"¨":{"ha":635,"x_min":53,"x_max":565,"o":"m 246 767 l 246 965 q 149 972 246 972 q 53 960 53 972 l 53 765 q 149 758 53 758 q 246 767 246 758 m 565 767 l 565 965 q 469 972 565 972 q 372 960 372 972 l 372 765 q 469 758 372 758 q 565 767 565 758 "},"©":{"ha":963,"x_min":117,"x_max":864,"o":"m 226 380 q 490 271 335 271 q 755 380 646 271 q 864 644 864 489 q 755 909 864 800 q 490 1018 646 1018 q 226 909 335 1018 q 117 644 117 800 q 171 434 117 489 q 226 380 226 380 m 494 944 q 703 857 617 944 q 790 648 790 769 q 703 439 790 526 q 492 351 617 351 q 283 438 368 351 q 197 647 197 525 q 285 857 197 769 q 433 944 372 944 q 494 944 494 944 m 625 810 q 590 843 625 831 q 510 856 554 856 q 360 800 419 856 q 300 647 300 744 q 358 496 300 550 q 508 442 417 442 q 595 456 558 442 q 632 493 632 469 q 604 576 632 531 q 586 590 593 594 q 531 575 571 575 q 451 651 451 575 q 471 708 451 689 q 521 728 490 728 q 575 714 551 728 q 595 726 583 708 q 616 770 607 744 q 625 810 625 796 "},"ª":{"ha":703,"x_min":111,"x_max":578,"o":"m 199 835 q 291 850 260 850 q 333 843 322 850 q 343 813 343 836 l 343 788 l 278 788 q 111 651 111 788 q 157 538 111 586 q 271 490 203 490 q 417 543 372 490 q 439 517 426 525 q 518 490 465 490 q 562 521 546 490 q 578 590 578 551 q 546 654 578 654 l 513 654 l 513 800 q 476 928 513 885 q 339 971 439 971 q 188 946 239 971 q 172 908 172 942 q 199 835 172 875 m 271 654 q 315 699 271 699 l 343 699 l 343 626 q 310 614 326 614 q 271 654 271 614 "},"«":{"ha":1074,"x_min":124,"x_max":919,"o":"m 138 328 l 379 40 q 401 32 388 32 q 442 49 414 32 q 487 92 471 65 q 503 133 503 119 q 493 154 503 146 l 307 354 l 490 551 q 500 573 500 560 q 484 613 500 586 q 440 657 468 640 q 398 674 411 674 q 376 665 385 674 l 143 392 q 124 357 124 372 q 138 328 124 342 m 554 328 l 796 40 q 817 32 804 32 q 859 49 831 32 q 903 92 888 65 q 919 133 919 119 q 910 154 919 146 l 724 354 l 907 551 q 917 573 917 560 q 901 613 917 586 q 856 657 885 640 q 815 674 828 674 q 793 665 801 674 l 560 392 q 540 357 540 372 q 554 328 540 342 "},"¬":{"ha":851,"x_min":93,"x_max":708,"o":"m 708 113 l 708 414 q 651 467 708 467 l 135 467 q 99 426 110 467 q 93 386 93 406 q 99 346 93 367 q 135 306 110 306 l 543 306 l 540 117 q 574 90 540 97 q 631 83 607 83 q 708 113 708 83 "},"­":{"ha":631,"x_min":65,"x_max":558,"o":"m 517 264 q 553 304 542 264 q 558 344 558 325 q 553 385 558 364 q 517 425 542 425 l 107 425 q 71 385 82 425 q 65 344 65 364 q 71 304 65 325 q 107 264 82 264 l 517 264 "},"®":{"ha":974,"x_min":117,"x_max":864,"o":"m 226 380 q 490 271 335 271 q 755 380 646 271 q 864 644 864 489 q 755 909 864 800 q 490 1018 646 1018 q 226 909 335 1018 q 117 644 117 800 q 171 434 117 489 q 226 380 226 380 m 494 944 q 703 857 617 944 q 790 648 790 769 q 703 439 790 526 q 492 351 617 351 q 283 438 368 351 q 197 647 197 525 q 285 857 197 769 q 433 944 372 944 q 494 944 494 944 m 660 735 q 503 854 660 854 l 360 854 q 339 833 339 854 l 339 460 q 406 443 339 443 q 474 460 474 443 l 474 590 l 485 590 l 526 497 q 601 440 551 440 q 634 449 614 440 q 674 474 654 457 q 699 501 693 490 l 601 624 q 660 735 660 664 m 474 754 l 485 754 q 531 717 531 754 q 476 671 531 671 l 474 671 l 474 754 "},"°":{"ha":536,"x_min":56,"x_max":479,"o":"m 112 553 q 267 490 168 490 q 423 553 367 490 q 479 731 479 617 q 423 908 479 844 q 267 971 367 971 q 112 908 168 971 q 56 731 56 846 q 84 584 56 615 q 112 553 112 553 m 181 831 q 267 867 213 867 q 353 831 322 867 q 383 731 383 796 q 353 630 383 665 q 267 594 322 594 q 181 630 213 594 q 150 731 150 665 q 166 814 150 796 q 181 831 181 831 "},"±":{"ha":826,"x_min":93,"x_max":725,"o":"m 490 360 l 490 500 l 683 500 q 719 540 708 500 q 725 581 725 561 q 719 621 725 600 q 683 661 708 661 l 490 661 l 490 853 q 450 889 490 878 l 410 894 q 369 889 389 894 q 329 853 329 878 l 329 661 l 135 661 q 99 621 110 661 q 93 581 93 600 q 99 540 93 561 q 135 500 110 500 l 329 500 l 329 360 q 410 347 329 347 q 490 360 490 347 m 135 296 q 99 256 110 296 q 93 215 93 236 q 99 175 93 194 q 135 135 110 135 l 683 135 q 719 175 708 135 q 725 215 725 194 q 719 256 725 236 q 683 296 708 296 l 135 296 "},"²":{"ha":489,"x_min":76,"x_max":421,"o":"m 117 807 q 185 832 156 832 q 224 821 214 832 q 233 785 233 810 q 210 731 233 761 q 83 618 188 700 q 79 599 79 614 q 83 554 79 583 q 117 499 93 499 l 381 499 q 421 576 421 499 q 418 638 421 613 l 278 632 q 403 842 403 740 q 253 975 403 975 q 141 960 193 975 q 83 931 89 944 q 76 906 76 917 q 117 807 76 867 "},"³":{"ha":424,"x_min":40,"x_max":374,"o":"m 40 553 q 92 517 40 532 q 215 503 143 503 q 331 541 288 503 q 374 633 374 579 q 352 711 374 686 q 290 754 331 736 q 361 864 361 797 q 325 942 361 911 q 221 972 289 972 q 103 956 153 972 q 53 915 53 940 q 65 860 53 890 q 82 822 76 831 q 158 836 115 836 q 201 808 201 836 q 157 769 201 772 l 132 768 q 119 753 119 768 q 126 722 119 738 q 140 706 132 706 l 154 706 q 201 698 188 706 q 214 669 214 690 q 147 626 214 626 q 76 650 113 626 q 54 609 68 639 q 40 553 40 579 "},"´":{"ha":496,"x_min":99,"x_max":406,"o":"m 157 735 q 399 840 160 735 q 406 863 406 847 q 374 954 406 906 q 339 988 353 988 q 108 863 335 988 q 100 828 100 854 q 125 763 100 801 q 157 735 144 735 "},"µ":{"ha":794,"x_min":56,"x_max":735,"o":"m 56 686 l 56 -221 q 115 -250 56 -242 l 178 -256 q 235 -251 206 -256 q 294 -221 294 -243 l 294 13 q 351 4 324 4 q 424 17 379 4 q 501 63 468 29 q 639 -14 546 -14 q 714 47 686 -14 q 733 140 733 94 q 686 231 733 231 l 650 231 l 650 686 q 532 700 650 700 q 414 686 414 700 l 414 240 q 339 211 372 211 q 294 281 294 211 l 294 686 q 175 701 294 701 q 56 686 56 701 "},"¶":{"ha":1083,"x_min":42,"x_max":983,"o":"m 257 29 q 311 -4 257 6 l 367 -8 q 422 -4 394 -8 q 476 29 476 6 l 476 708 q 506 736 476 728 q 533 739 519 739 q 561 736 547 739 q 589 708 589 728 l 589 29 q 658 -7 589 4 l 731 -12 q 797 -8 764 -12 q 867 29 867 3 l 867 750 l 936 750 q 978 806 965 750 q 983 860 983 832 q 976 917 983 888 q 936 972 964 972 l 340 972 q 119 895 196 972 q 42 692 42 818 q 97 487 42 567 q 257 407 153 407 l 257 29 "},"·":{"ha":429,"x_min":81,"x_max":343,"o":"m 343 301 l 343 556 q 212 563 343 563 q 81 550 81 563 l 81 300 q 212 292 81 292 q 343 301 343 292 "},"¸":{"ha":558,"x_min":139,"x_max":408,"o":"m 140 -167 q 163 -214 140 -204 q 272 -236 211 -236 q 403 -174 382 -236 q 407 -143 407 -161 q 354 29 407 -85 l 269 29 l 269 -47 q 261 -84 269 -76 q 224 -92 253 -92 l 178 -92 q 140 -167 140 -92 "},"¹":{"ha":393,"x_min":57,"x_max":321,"o":"m 321 949 q 296 965 321 965 l 78 965 q 57 892 57 965 q 78 818 57 818 l 150 819 l 150 504 q 235 492 150 492 q 321 504 321 492 l 321 949 "},"º":{"ha":508,"x_min":56,"x_max":479,"o":"m 112 553 q 267 490 168 490 q 423 553 367 490 q 479 731 479 617 q 423 908 479 844 q 267 971 367 971 q 112 908 168 971 q 56 731 56 846 q 84 584 56 615 q 112 553 112 553 m 268 803 q 307 786 290 803 q 324 731 324 769 q 307 677 324 693 q 268 661 290 661 q 213 732 213 661 q 268 803 213 803 "},"»":{"ha":1017,"x_min":124,"x_max":919,"o":"m 664 40 l 906 328 q 919 357 919 342 q 900 392 919 372 l 667 665 q 644 674 658 674 q 603 657 631 674 q 559 613 575 640 q 543 573 543 586 q 553 551 543 560 l 736 354 l 550 154 q 540 133 540 146 q 556 92 540 119 q 600 47 572 64 q 641 31 628 31 q 664 40 654 31 m 247 40 l 489 328 q 503 357 503 342 q 483 392 503 372 l 250 665 q 228 674 242 674 q 186 657 214 674 q 142 613 158 640 q 126 573 126 586 q 136 551 126 560 l 319 354 l 133 154 q 124 133 124 146 q 140 92 124 119 q 183 47 156 64 q 224 31 211 31 q 247 40 238 31 "},"¼":{"ha":1165,"x_min":113,"x_max":1064,"o":"m 1056 208 l 1013 208 l 1011 478 q 914 481 1011 481 q 813 471 817 481 l 665 210 q 661 190 661 203 q 676 147 661 176 q 707 104 690 117 l 854 104 l 854 11 q 926 -4 854 0 q 1013 13 1013 -4 l 1013 107 l 1056 107 q 1064 158 1064 107 q 1056 208 1064 208 m 881 207 l 801 207 l 881 349 l 881 207 m 376 956 q 351 972 376 972 l 133 972 q 113 899 113 972 q 133 825 113 825 l 206 826 l 206 511 q 291 499 206 499 q 376 511 376 499 l 376 956 m 785 956 l 239 68 q 233 48 233 60 q 250 19 233 36 q 329 -14 282 -14 q 357 0 343 -14 l 903 889 q 908 909 908 897 q 892 936 908 921 q 814 969 861 969 q 785 956 800 969 "},"½":{"ha":1178,"x_min":115,"x_max":1085,"o":"m 379 956 q 354 972 379 972 l 136 972 q 115 899 115 972 q 136 825 115 825 l 208 826 l 208 511 q 294 499 208 499 q 379 511 379 499 l 379 956 m 781 308 q 849 333 819 333 q 888 322 878 333 q 897 287 897 311 q 874 232 897 263 q 747 119 851 201 q 743 100 743 115 q 747 56 743 85 q 781 0 757 0 l 1044 0 q 1085 78 1085 0 q 1082 139 1085 114 l 942 133 q 1067 343 1067 242 q 917 476 1067 476 q 805 461 857 476 q 747 432 753 446 q 740 407 740 418 q 781 308 740 368 m 785 956 l 239 68 q 233 48 233 60 q 250 19 233 36 q 329 -14 282 -14 q 357 0 343 -14 l 903 889 q 908 909 908 897 q 892 936 908 921 q 814 969 861 969 q 785 956 800 969 "},"¾":{"ha":1206,"x_min":96,"x_max":1064,"o":"m 1056 208 l 1013 208 l 1011 478 q 914 481 1011 481 q 813 471 817 481 l 665 210 q 661 190 661 203 q 676 147 661 176 q 707 104 690 117 l 854 104 l 854 11 q 926 -4 854 0 q 1013 13 1013 -4 l 1013 107 l 1056 107 q 1064 158 1064 107 q 1056 208 1064 208 m 881 207 l 801 207 l 881 349 l 881 207 m 96 553 q 147 517 96 532 q 271 503 199 503 q 386 541 343 503 q 429 633 429 579 q 408 711 429 686 q 346 754 386 736 q 417 864 417 797 q 381 942 417 911 q 276 972 344 972 q 158 956 208 972 q 108 915 108 940 q 120 860 108 890 q 138 822 132 831 q 214 836 171 836 q 257 808 257 836 q 213 769 257 772 l 188 768 q 175 753 175 768 q 181 722 175 738 q 196 706 188 706 l 210 706 q 256 698 243 706 q 269 669 269 690 q 203 626 269 626 q 132 650 168 626 q 110 609 124 639 q 96 553 96 579 m 785 956 l 239 68 q 233 48 233 60 q 250 19 233 36 q 329 -14 282 -14 q 357 0 343 -14 l 903 889 q 908 909 908 897 q 892 936 908 921 q 814 969 861 969 q 785 956 800 969 "},"¿":{"ha":811,"x_min":90,"x_max":707,"o":"m 347 701 l 347 481 q 462 474 347 474 q 576 485 576 474 l 576 703 q 462 710 576 710 q 347 701 347 710 m 483 421 q 391 413 443 421 q 339 389 339 406 l 339 347 q 250 222 339 303 q 178 149 214 188 q 116 60 142 111 q 90 -43 90 10 q 168 -225 90 -158 q 401 -292 246 -292 q 595 -260 504 -292 q 700 -192 686 -228 q 707 -159 707 -176 q 700 -119 707 -142 q 625 0 678 -53 q 465 -53 544 -53 q 385 17 385 -53 q 417 100 385 54 q 489 182 450 146 q 593 342 593 279 l 593 394 q 483 421 593 421 "},"À":{"ha":910,"x_min":19,"x_max":886,"o":"m 721 -17 q 822 -11 758 -17 q 886 4 886 -6 l 647 960 q 457 971 647 971 q 267 960 267 971 l 19 6 q 51 -6 19 1 q 150 -14 83 -14 q 283 29 275 -14 l 325 215 l 546 215 l 590 22 q 721 -17 600 -17 m 360 392 l 435 679 l 443 679 l 506 392 l 360 392 m 308 1118 q 550 1013 547 1013 q 585 1046 563 1013 q 607 1121 607 1079 q 599 1140 607 1132 q 368 1265 372 1265 q 328 1224 354 1265 q 301 1138 301 1183 q 308 1118 301 1125 "},"Á":{"ha":910,"x_min":19,"x_max":886,"o":"m 721 -17 q 822 -11 758 -17 q 886 4 886 -6 l 647 960 q 457 971 647 971 q 267 960 267 971 l 19 6 q 51 -6 19 1 q 150 -14 83 -14 q 283 29 275 -14 l 325 215 l 546 215 l 590 22 q 721 -17 600 -17 m 360 392 l 435 679 l 443 679 l 506 392 l 360 392 m 358 1013 q 600 1118 361 1013 q 607 1140 607 1125 q 575 1232 607 1183 q 540 1265 554 1265 q 310 1140 536 1265 q 301 1106 301 1132 q 326 1040 301 1079 q 358 1013 346 1013 "},"Â":{"ha":910,"x_min":19,"x_max":886,"o":"m 721 -17 q 822 -11 758 -17 q 886 4 886 -6 l 647 960 q 457 971 647 971 q 267 960 267 971 l 19 6 q 51 -6 19 1 q 150 -14 83 -14 q 283 29 275 -14 l 325 215 l 546 215 l 590 22 q 721 -17 600 -17 m 360 392 l 435 679 l 443 679 l 506 392 l 360 392 m 278 1006 q 454 1108 281 1006 q 632 1006 629 1006 q 668 1042 644 1006 q 692 1121 692 1078 q 683 1140 692 1133 l 469 1257 q 454 1263 460 1263 q 439 1257 449 1263 l 225 1140 q 217 1106 217 1133 q 244 1036 217 1078 q 278 1006 265 1006 "},"Ã":{"ha":910,"x_min":19,"x_max":886,"o":"m 721 -17 q 822 -11 758 -17 q 886 4 886 -6 l 647 960 q 457 971 647 971 q 267 960 267 971 l 19 6 q 51 -6 19 1 q 150 -14 83 -14 q 283 29 275 -14 l 325 215 l 546 215 l 590 22 q 721 -17 600 -17 m 360 392 l 435 679 l 443 679 l 506 392 l 360 392 m 257 1046 q 278 1061 264 1050 q 297 1076 292 1072 q 313 1086 303 1079 q 331 1095 324 1093 q 349 1100 339 1097 q 373 1103 358 1103 q 451 1075 388 1103 q 568 1047 515 1047 q 578 1047 572 1047 q 661 1078 618 1047 q 728 1163 728 1122 q 699 1215 728 1176 q 653 1254 669 1254 q 646 1253 649 1254 q 550 1199 601 1200 q 467 1224 521 1199 q 369 1250 413 1250 q 189 1163 276 1250 q 185 1146 185 1158 q 208 1093 185 1133 q 257 1046 231 1053 "},"Ä":{"ha":910,"x_min":19,"x_max":886,"o":"m 721 -17 q 822 -11 758 -17 q 886 4 886 -6 l 647 960 q 457 971 647 971 q 267 960 267 971 l 19 6 q 51 -6 19 1 q 150 -14 83 -14 q 283 29 275 -14 l 325 215 l 546 215 l 590 22 q 721 -17 600 -17 m 360 392 l 435 679 l 443 679 l 506 392 l 360 392 m 392 1044 l 392 1243 q 295 1250 392 1250 q 199 1238 199 1250 l 199 1043 q 295 1036 199 1036 q 392 1044 392 1036 m 711 1044 l 711 1243 q 615 1250 711 1250 q 518 1238 518 1250 l 518 1043 q 615 1036 518 1036 q 711 1044 711 1036 "},"Å":{"ha":910,"x_min":19,"x_max":886,"o":"m 721 -17 q 822 -11 758 -17 q 886 4 886 -6 l 647 960 q 457 971 647 971 q 267 960 267 971 l 19 6 q 51 -6 19 1 q 150 -14 83 -14 q 283 29 275 -14 l 325 215 l 546 215 l 590 22 q 721 -17 600 -17 m 360 392 l 435 679 l 443 679 l 506 392 l 360 392 m 363 1043 q 451 1007 399 1007 q 540 1043 504 1007 q 576 1132 576 1079 q 540 1221 576 1185 q 451 1257 504 1257 q 363 1221 399 1257 q 326 1132 326 1185 q 344 1061 326 1079 q 363 1043 363 1043 m 394 1192 q 453 1217 418 1217 q 512 1192 488 1217 q 536 1133 536 1168 q 512 1074 536 1099 q 453 1050 488 1050 q 394 1074 418 1050 q 369 1133 369 1099 q 382 1180 369 1168 q 394 1192 394 1192 "},"Æ":{"ha":1274,"x_min":47,"x_max":1189,"o":"m 1076 586 l 897 586 l 897 724 l 1154 724 q 1183 848 1183 724 q 1154 972 1183 972 l 500 972 l 47 6 q 111 -10 53 -7 q 190 -14 169 -14 q 331 31 310 -14 l 419 217 l 640 217 l 640 44 q 683 0 640 0 l 1153 0 q 1181 47 1172 0 q 1189 124 1189 94 q 1185 181 1189 154 q 1153 242 1176 242 l 897 242 l 897 381 l 1074 381 q 1097 420 1090 381 q 1103 489 1103 460 q 1076 586 1103 586 m 643 396 l 497 396 l 635 728 l 643 728 l 643 396 "},"Ç":{"ha":758,"x_min":21,"x_max":721,"o":"m 519 -158 q 479 -12 519 -108 q 651 24 582 -7 q 721 104 721 56 q 701 183 721 132 q 659 265 682 233 q 628 296 636 296 q 617 293 619 296 q 560 267 600 276 q 489 258 521 258 q 360 315 411 258 q 310 490 310 372 q 359 664 310 607 q 489 721 408 721 q 545 712 513 721 q 587 695 578 703 q 603 688 596 688 q 665 759 628 688 q 701 879 701 831 q 624 956 701 928 q 446 985 547 985 q 142 850 264 985 q 21 490 21 715 q 121 138 21 264 q 382 -10 221 11 l 382 -61 q 374 -98 382 -90 q 336 -106 365 -106 l 290 -106 q 253 -162 261 -106 q 251 -185 251 -175 q 275 -228 251 -221 q 383 -250 321 -250 q 519 -158 519 -250 "},"È":{"ha":678,"x_min":63,"x_max":626,"o":"m 435 1013 q 469 1046 447 1013 q 492 1121 492 1079 q 483 1140 492 1132 q 253 1265 257 1265 q 213 1224 239 1265 q 186 1138 186 1183 q 193 1118 186 1125 q 435 1013 432 1013 m 514 586 l 335 586 l 335 726 l 592 726 q 621 849 621 726 q 592 972 621 972 l 94 972 q 63 936 63 972 l 63 43 q 115 0 63 0 l 590 0 q 618 47 610 0 q 626 124 626 94 q 622 181 626 154 q 590 242 614 242 l 335 242 l 335 381 l 511 381 q 534 420 528 381 q 540 489 540 460 q 514 586 540 586 "},"É":{"ha":678,"x_min":63,"x_max":626,"o":"m 243 1013 q 485 1118 246 1013 q 492 1140 492 1125 q 460 1232 492 1183 q 425 1265 439 1265 q 194 1140 421 1265 q 186 1106 186 1132 q 211 1040 186 1079 q 243 1013 231 1013 m 514 586 l 335 586 l 335 726 l 592 726 q 621 849 621 726 q 592 972 621 972 l 94 972 q 63 936 63 972 l 63 43 q 115 0 63 0 l 590 0 q 618 47 610 0 q 626 124 626 94 q 622 181 626 154 q 590 242 614 242 l 335 242 l 335 381 l 511 381 q 534 420 528 381 q 540 489 540 460 q 514 586 540 586 "},"Ê":{"ha":678,"x_min":63,"x_max":626,"o":"m 163 1006 q 339 1108 165 1006 q 517 1006 514 1006 q 553 1042 529 1006 q 576 1121 576 1078 q 568 1140 576 1133 l 354 1257 q 339 1263 344 1263 q 324 1257 333 1263 l 110 1140 q 101 1106 101 1133 q 129 1036 101 1078 q 163 1006 150 1006 m 514 586 l 335 586 l 335 726 l 592 726 q 621 849 621 726 q 592 972 621 972 l 94 972 q 63 936 63 972 l 63 43 q 115 0 63 0 l 590 0 q 618 47 610 0 q 626 124 626 94 q 622 181 626 154 q 590 242 614 242 l 335 242 l 335 381 l 511 381 q 534 420 528 381 q 540 489 540 460 q 514 586 540 586 "},"Ë":{"ha":678,"x_min":63,"x_max":626,"o":"m 275 1044 l 275 1243 q 178 1250 275 1250 q 82 1238 82 1250 l 82 1043 q 178 1036 82 1036 q 275 1044 275 1036 m 594 1044 l 594 1243 q 498 1250 594 1250 q 401 1238 401 1250 l 401 1043 q 498 1036 401 1036 q 594 1044 594 1036 m 514 586 l 335 586 l 335 726 l 592 726 q 621 849 621 726 q 592 972 621 972 l 94 972 q 63 936 63 972 l 63 43 q 115 0 63 0 l 590 0 q 618 47 610 0 q 626 124 626 94 q 622 181 626 154 q 590 242 614 242 l 335 242 l 335 381 l 511 381 q 534 420 528 381 q 540 489 540 460 q 514 586 540 586 "},"Ì":{"ha":600,"x_min":25,"x_max":574,"o":"m 163 239 l 67 239 q 33 179 43 239 q 29 119 29 150 q 33 60 29 89 q 67 0 43 0 l 535 0 q 568 60 558 0 q 572 119 572 89 q 568 179 572 150 q 535 239 558 239 l 438 239 l 438 733 l 531 733 q 564 793 554 733 q 568 853 568 822 q 564 913 568 883 q 531 972 554 972 l 64 972 q 31 913 40 972 q 25 853 25 883 q 31 793 25 822 q 64 733 40 733 l 163 733 l 163 239 m 154 1118 q 396 1013 393 1013 q 431 1046 408 1013 q 453 1121 453 1079 q 444 1140 453 1132 q 214 1265 218 1265 q 174 1224 200 1265 q 147 1138 147 1183 q 154 1118 147 1125 "},"Í":{"ha":600,"x_min":25,"x_max":574,"o":"m 163 239 l 67 239 q 33 179 43 239 q 29 119 29 150 q 33 60 29 89 q 67 0 43 0 l 535 0 q 568 60 558 0 q 572 119 572 89 q 568 179 572 150 q 535 239 558 239 l 438 239 l 438 733 l 531 733 q 564 793 554 733 q 568 853 568 822 q 564 913 568 883 q 531 972 554 972 l 64 972 q 31 913 40 972 q 25 853 25 883 q 31 793 25 822 q 64 733 40 733 l 163 733 l 163 239 m 204 1013 q 446 1118 207 1013 q 453 1140 453 1125 q 421 1232 453 1183 q 386 1265 400 1265 q 156 1140 382 1265 q 147 1106 147 1132 q 172 1040 147 1079 q 204 1013 192 1013 "},"Î":{"ha":600,"x_min":25,"x_max":574,"o":"m 163 239 l 67 239 q 33 179 43 239 q 29 119 29 150 q 33 60 29 89 q 67 0 43 0 l 535 0 q 568 60 558 0 q 572 119 572 89 q 568 179 572 150 q 535 239 558 239 l 438 239 l 438 733 l 531 733 q 564 793 554 733 q 568 853 568 822 q 564 913 568 883 q 531 972 554 972 l 64 972 q 31 913 40 972 q 25 853 25 883 q 31 793 25 822 q 64 733 40 733 l 163 733 l 163 239 m 124 1006 q 300 1108 126 1006 q 478 1006 475 1006 q 514 1042 490 1006 q 538 1121 538 1078 q 529 1140 538 1133 l 315 1257 q 300 1263 306 1263 q 285 1257 294 1263 l 71 1140 q 63 1106 63 1133 q 90 1036 63 1078 q 124 1006 111 1006 "},"Ï":{"ha":600,"x_min":25,"x_max":574,"o":"m 238 1044 l 238 1243 q 141 1250 238 1250 q 44 1238 44 1250 l 44 1043 q 141 1036 44 1036 q 238 1044 238 1036 m 557 1044 l 557 1243 q 460 1250 557 1250 q 364 1238 364 1250 l 364 1043 q 460 1036 364 1036 q 557 1044 557 1036 m 163 239 l 67 239 q 33 179 43 239 q 29 119 29 150 q 33 60 29 89 q 67 0 43 0 l 535 0 q 568 60 558 0 q 572 119 572 89 q 568 179 572 150 q 535 239 558 239 l 438 239 l 438 733 l 531 733 q 564 793 554 733 q 568 853 568 822 q 564 913 568 883 q 531 972 554 972 l 64 972 q 31 913 40 972 q 25 853 25 883 q 31 793 25 822 q 64 733 40 733 l 163 733 l 163 239 "},"Ð":{"ha":861,"x_min":-18,"x_max":828,"o":"m 83 36 q 117 0 83 0 l 392 0 q 828 511 828 0 q 713 861 828 750 q 378 972 599 972 l 107 972 q 83 942 83 972 l 83 578 l 24 578 q -12 538 -1 578 q -18 497 -18 517 q -12 457 -18 478 q 24 417 -1 417 l 83 417 l 83 36 m 403 417 q 439 457 428 417 q 444 497 444 478 q 439 538 444 517 q 403 578 428 578 l 336 578 l 336 722 l 364 722 q 503 681 457 722 q 549 507 549 640 q 506 318 549 374 q 365 263 464 263 q 341 270 346 263 q 336 307 336 278 l 336 417 l 403 417 "},"Ñ":{"ha":913,"x_min":60,"x_max":821,"o":"m 258 1046 q 279 1061 265 1050 q 299 1076 293 1072 q 315 1086 304 1079 q 333 1095 325 1093 q 350 1100 340 1097 q 374 1103 360 1103 q 453 1075 389 1103 q 569 1047 517 1047 q 579 1047 574 1047 q 664 1078 619 1047 q 729 1163 729 1122 q 700 1215 729 1176 q 654 1254 671 1254 q 647 1253 650 1254 q 551 1199 603 1200 q 468 1224 522 1199 q 371 1250 414 1250 q 190 1163 278 1250 q 186 1146 186 1158 q 209 1093 186 1133 q 258 1046 232 1053 m 821 17 l 821 954 q 692 981 821 981 q 563 954 563 981 l 563 510 l 333 951 q 265 980 321 972 q 167 988 208 988 q 60 967 60 988 l 60 15 q 188 -10 60 -10 q 317 15 317 -10 l 317 456 l 556 8 q 694 -12 567 -12 q 821 17 821 -12 "},"Ò":{"ha":967,"x_min":42,"x_max":925,"o":"m 579 1013 q 614 1046 592 1013 q 636 1121 636 1079 q 628 1140 636 1132 q 397 1265 401 1265 q 357 1224 383 1265 q 331 1138 331 1183 q 338 1118 331 1125 q 579 1013 576 1013 m 483 -14 q 801 109 678 -14 q 925 484 925 232 q 804 860 925 736 q 487 985 683 985 q 166 858 290 985 q 42 487 42 732 q 165 114 42 242 q 385 -14 288 -14 q 483 -14 483 -14 m 483 718 q 595 658 550 718 q 640 488 640 599 q 597 317 640 376 q 483 257 553 257 q 369 316 413 257 q 326 485 326 375 q 372 657 326 596 q 450 718 417 718 q 483 718 483 718 "},"Ó":{"ha":967,"x_min":42,"x_max":925,"o":"m 388 1013 q 629 1118 390 1013 q 636 1140 636 1125 q 604 1232 636 1183 q 569 1265 583 1265 q 339 1140 565 1265 q 331 1106 331 1132 q 356 1040 331 1079 q 388 1013 375 1013 m 483 -14 q 801 109 678 -14 q 925 484 925 232 q 804 860 925 736 q 487 985 683 985 q 166 858 290 985 q 42 487 42 732 q 165 114 42 242 q 385 -14 288 -14 q 483 -14 483 -14 m 483 718 q 595 658 550 718 q 640 488 640 599 q 597 317 640 376 q 483 257 553 257 q 369 316 413 257 q 326 485 326 375 q 372 657 326 596 q 450 718 417 718 q 483 718 483 718 "},"Ô":{"ha":967,"x_min":42,"x_max":925,"o":"m 307 1006 q 483 1108 310 1006 q 661 1006 658 1006 q 697 1042 674 1006 q 721 1121 721 1078 q 713 1140 721 1133 l 499 1257 q 483 1263 489 1263 q 468 1257 478 1263 l 254 1140 q 246 1106 246 1133 q 274 1036 246 1078 q 307 1006 294 1006 m 483 -14 q 801 109 678 -14 q 925 484 925 232 q 804 860 925 736 q 487 985 683 985 q 166 858 290 985 q 42 487 42 732 q 165 114 42 242 q 385 -14 288 -14 q 483 -14 483 -14 m 483 718 q 595 658 550 718 q 640 488 640 599 q 597 317 640 376 q 483 257 553 257 q 369 316 413 257 q 326 485 326 375 q 372 657 326 596 q 450 718 417 718 q 483 718 483 718 "},"Õ":{"ha":967,"x_min":42,"x_max":925,"o":"m 285 1046 q 306 1061 292 1050 q 325 1076 319 1072 q 341 1086 331 1079 q 359 1095 351 1093 q 376 1100 367 1097 q 401 1103 386 1103 q 479 1075 415 1103 q 596 1047 543 1047 q 606 1047 600 1047 q 689 1078 646 1047 q 756 1163 756 1122 q 726 1215 756 1176 q 681 1254 697 1254 q 674 1253 676 1254 q 578 1199 629 1200 q 494 1224 549 1199 q 397 1250 440 1250 q 217 1163 304 1250 q 213 1146 213 1158 q 235 1093 213 1133 q 285 1046 258 1053 m 483 -14 q 801 109 678 -14 q 925 484 925 232 q 804 860 925 736 q 487 985 683 985 q 166 858 290 985 q 42 487 42 732 q 165 114 42 242 q 385 -14 288 -14 q 483 -14 483 -14 m 483 718 q 595 658 550 718 q 640 488 640 599 q 597 317 640 376 q 483 257 553 257 q 369 316 413 257 q 326 485 326 375 q 372 657 326 596 q 450 718 417 718 q 483 718 483 718 "},"Ö":{"ha":967,"x_min":42,"x_max":925,"o":"m 419 1044 l 419 1243 q 323 1250 419 1250 q 226 1238 226 1250 l 226 1043 q 323 1036 226 1036 q 419 1044 419 1036 m 739 1044 l 739 1243 q 642 1250 739 1250 q 546 1238 546 1250 l 546 1043 q 642 1036 546 1036 q 739 1044 739 1036 m 483 -14 q 801 109 678 -14 q 925 484 925 232 q 804 860 925 736 q 487 985 683 985 q 166 858 290 985 q 42 487 42 732 q 165 114 42 242 q 385 -14 288 -14 q 483 -14 483 -14 m 483 718 q 595 658 550 718 q 640 488 640 599 q 597 317 640 376 q 483 257 553 257 q 369 316 413 257 q 326 485 326 375 q 372 657 326 596 q 450 718 417 718 q 483 718 483 718 "},"×":{"ha":847,"x_min":140,"x_max":701,"o":"m 150 638 l 306 481 l 151 326 q 142 297 142 317 q 179 240 142 278 q 236 203 217 203 q 265 213 256 203 l 419 367 l 576 210 q 597 201 585 201 q 661 238 624 201 q 691 276 683 258 q 699 305 699 294 q 690 324 699 315 l 533 481 l 692 639 q 700 660 700 647 q 684 701 700 674 q 640 745 668 729 q 599 761 613 761 q 578 753 586 761 l 419 594 l 264 751 q 242 760 256 760 q 200 743 228 760 q 157 699 172 726 q 142 659 142 672 q 150 638 142 646 "},"Ø":{"ha":967,"x_min":42,"x_max":925,"o":"m 179 99 l 117 -22 q 125 -62 108 -40 q 174 -98 142 -83 q 232 -112 206 -112 q 261 -96 251 -112 l 317 13 q 476 -14 396 -14 q 801 109 678 -14 q 925 495 925 232 q 771 890 925 758 l 832 1008 q 835 1028 835 1015 q 811 1060 835 1040 q 717 1096 769 1096 q 688 1081 701 1096 l 628 965 q 481 985 554 985 q 166 858 290 985 q 42 483 42 732 q 179 99 42 233 m 483 192 q 415 204 447 192 l 653 661 q 685 467 685 590 q 629 268 685 344 q 483 192 574 192 m 282 485 q 340 706 282 628 q 483 783 399 783 q 531 776 503 783 l 303 338 q 282 485 282 397 "},"Ù":{"ha":872,"x_min":42,"x_max":825,"o":"m 524 960 l 524 343 q 497 297 524 313 q 436 282 469 282 q 372 300 403 282 q 343 343 343 315 l 343 956 q 192 983 343 983 q 42 956 42 983 l 42 328 q 153 78 42 171 q 444 -14 265 -14 q 724 76 622 -14 q 825 307 825 165 l 825 960 q 674 988 825 988 q 524 960 524 988 m 290 1118 q 532 1013 529 1013 q 567 1046 544 1013 q 589 1121 589 1079 q 581 1140 589 1132 q 350 1265 354 1265 q 310 1224 336 1265 q 283 1138 283 1183 q 290 1118 283 1125 "},"Ú":{"ha":872,"x_min":42,"x_max":825,"o":"m 340 1013 q 582 1118 343 1013 q 589 1140 589 1125 q 557 1232 589 1183 q 522 1265 536 1265 q 292 1140 518 1265 q 283 1106 283 1132 q 308 1040 283 1079 q 340 1013 328 1013 m 524 960 l 524 343 q 497 297 524 313 q 436 282 469 282 q 372 300 403 282 q 343 343 343 315 l 343 956 q 192 983 343 983 q 42 956 42 983 l 42 328 q 153 78 42 171 q 444 -14 265 -14 q 724 76 622 -14 q 825 307 825 165 l 825 960 q 674 988 825 988 q 524 960 524 988 "},"Û":{"ha":872,"x_min":42,"x_max":825,"o":"m 260 1006 q 436 1108 263 1006 q 614 1006 611 1006 q 650 1042 626 1006 q 674 1121 674 1078 q 665 1140 674 1133 l 451 1257 q 436 1263 442 1263 q 421 1257 431 1263 l 207 1140 q 199 1106 199 1133 q 226 1036 199 1078 q 260 1006 247 1006 m 524 960 l 524 343 q 497 297 524 313 q 436 282 469 282 q 372 300 403 282 q 343 343 343 315 l 343 956 q 192 983 343 983 q 42 956 42 983 l 42 328 q 153 78 42 171 q 444 -14 265 -14 q 724 76 622 -14 q 825 307 825 165 l 825 960 q 674 988 825 988 q 524 960 524 988 "},"Ü":{"ha":872,"x_min":42,"x_max":825,"o":"m 372 1044 l 372 1243 q 276 1250 372 1250 q 179 1238 179 1250 l 179 1043 q 276 1036 179 1036 q 372 1044 372 1036 m 692 1044 l 692 1243 q 595 1250 692 1250 q 499 1238 499 1250 l 499 1043 q 595 1036 499 1036 q 692 1044 692 1036 m 524 960 l 524 343 q 497 297 524 313 q 436 282 469 282 q 372 300 403 282 q 343 343 343 315 l 343 956 q 192 983 343 983 q 42 956 42 983 l 42 328 q 153 78 42 171 q 444 -14 265 -14 q 724 76 622 -14 q 825 307 825 165 l 825 960 q 674 988 825 988 q 524 960 524 988 "},"Ý":{"ha":854,"x_min":-15,"x_max":876,"o":"m 331 1013 q 572 1118 333 1013 q 579 1140 579 1125 q 547 1232 579 1183 q 513 1265 526 1265 q 282 1140 508 1265 q 274 1106 274 1132 q 299 1040 274 1079 q 331 1013 318 1013 m 553 936 l 436 633 l 335 936 q 147 986 318 986 q 42 978 104 986 q -15 963 -21 971 l 283 339 l 283 25 q 360 -10 283 0 q 435 -14 397 -14 q 511 -8 472 -14 q 588 25 588 1 l 588 347 l 876 965 q 826 979 881 974 q 731 985 771 985 q 553 936 571 985 "},"Þ":{"ha":826,"x_min":64,"x_max":739,"o":"m 64 971 l 64 18 q 196 -14 64 -14 q 264 -10 229 -14 q 332 19 332 -1 l 332 164 q 526 197 443 164 q 653 286 610 231 q 739 531 739 397 q 647 778 739 694 q 331 861 556 861 l 331 972 q 193 990 331 985 q 64 971 64 990 m 332 619 l 361 619 q 442 596 419 619 q 465 517 465 572 q 432 431 465 461 q 350 400 399 400 l 332 400 l 332 619 "},"ß":{"ha":933,"x_min":114,"x_max":871,"o":"m 594 -14 q 798 64 725 -14 q 871 253 871 142 q 811 422 871 364 q 693 493 783 450 q 771 745 771 626 q 690 925 771 864 q 453 986 608 986 q 206 915 299 986 q 114 704 114 844 l 114 -192 q 236 -208 114 -208 q 358 -192 358 -208 l 357 664 q 397 743 357 719 q 440 756 419 756 q 481 744 461 756 q 522 676 522 724 q 513 600 522 629 q 500 565 504 571 l 460 564 q 431 535 440 564 q 421 478 421 507 q 456 390 421 417 q 571 365 536 386 q 606 293 606 344 q 514 226 606 226 q 424 247 469 226 q 401 108 401 169 q 456 21 401 56 q 594 -14 511 -14 "},"à":{"ha":718,"x_min":19,"x_max":701,"o":"m 150 504 q 300 526 247 526 q 355 516 343 526 q 367 469 367 506 l 367 456 l 290 456 q 19 229 19 456 q 89 58 19 131 q 260 -14 158 -14 q 458 67 394 -14 q 490 26 469 43 q 611 -14 536 -14 q 677 33 653 -14 q 701 129 701 81 q 688 206 701 178 q 651 233 675 233 l 604 233 l 604 453 q 547 644 604 579 q 352 708 490 708 q 135 674 214 708 q 111 617 111 661 q 150 504 111 574 m 261 249 q 328 314 261 314 l 367 314 l 367 207 q 320 186 346 186 q 278 202 294 186 q 261 249 261 218 m 206 840 q 447 735 444 735 q 482 768 460 735 q 504 843 504 801 q 496 863 504 854 q 265 988 269 988 q 225 947 251 988 q 199 860 199 906 q 206 840 199 847 "},"á":{"ha":718,"x_min":19,"x_max":701,"o":"m 150 504 q 300 526 247 526 q 355 516 343 526 q 367 469 367 506 l 367 456 l 290 456 q 19 229 19 456 q 89 58 19 131 q 260 -14 158 -14 q 458 67 394 -14 q 490 26 469 43 q 611 -14 536 -14 q 677 33 653 -14 q 701 129 701 81 q 688 206 701 178 q 651 233 675 233 l 604 233 l 604 453 q 547 644 604 579 q 352 708 490 708 q 135 674 214 708 q 111 617 111 661 q 150 504 111 574 m 261 249 q 328 314 261 314 l 367 314 l 367 207 q 320 186 346 186 q 278 202 294 186 q 261 249 261 218 m 246 735 q 488 840 249 735 q 494 863 494 847 q 463 954 494 906 q 428 988 442 988 q 197 863 424 988 q 189 828 189 854 q 214 763 189 801 q 246 735 233 735 "},"â":{"ha":718,"x_min":19,"x_max":701,"o":"m 161 728 q 338 831 164 728 q 515 728 513 728 q 551 764 528 728 q 575 843 575 800 q 567 863 575 856 l 353 979 q 338 985 343 985 q 322 979 332 985 l 108 863 q 100 828 100 856 q 128 758 100 800 q 161 728 149 728 m 150 504 q 300 526 247 526 q 355 516 343 526 q 367 469 367 506 l 367 456 l 290 456 q 19 229 19 456 q 89 58 19 131 q 260 -14 158 -14 q 458 67 394 -14 q 490 26 469 43 q 611 -14 536 -14 q 677 33 653 -14 q 701 129 701 81 q 688 206 701 178 q 651 233 675 233 l 604 233 l 604 453 q 547 644 604 579 q 352 708 490 708 q 135 674 214 708 q 111 617 111 661 q 150 504 111 574 m 261 249 q 328 314 261 314 l 367 314 l 367 207 q 320 186 346 186 q 278 202 294 186 q 261 249 261 218 "},"ã":{"ha":718,"x_min":19,"x_max":701,"o":"m 153 768 q 174 783 160 772 q 193 798 188 794 q 209 808 199 801 q 227 817 219 815 q 244 822 235 819 q 269 825 254 825 q 347 797 283 825 q 464 769 411 769 q 474 769 468 769 q 558 800 514 769 q 624 885 624 844 q 594 938 624 899 q 549 976 565 976 q 542 975 544 976 q 446 921 497 922 q 363 947 417 921 q 265 972 308 972 q 85 885 172 972 q 81 868 81 881 q 103 815 81 856 q 153 768 126 775 m 150 504 q 300 526 247 526 q 355 516 343 526 q 367 469 367 506 l 367 456 l 290 456 q 19 229 19 456 q 89 58 19 131 q 260 -14 158 -14 q 458 67 394 -14 q 490 26 469 43 q 611 -14 536 -14 q 677 33 653 -14 q 701 129 701 81 q 688 206 701 178 q 651 233 675 233 l 604 233 l 604 453 q 547 644 604 579 q 352 708 490 708 q 135 674 214 708 q 111 617 111 661 q 150 504 111 574 m 261 249 q 328 314 261 314 l 367 314 l 367 207 q 320 186 346 186 q 278 202 294 186 q 261 249 261 218 "},"ä":{"ha":718,"x_min":19,"x_max":701,"o":"m 281 767 l 281 965 q 184 972 281 972 q 88 960 88 972 l 88 765 q 184 758 88 758 q 281 767 281 758 m 600 767 l 600 965 q 503 972 600 972 q 407 960 407 972 l 407 765 q 503 758 407 758 q 600 767 600 758 m 150 504 q 300 526 247 526 q 355 516 343 526 q 367 469 367 506 l 367 456 l 290 456 q 19 229 19 456 q 89 58 19 131 q 260 -14 158 -14 q 458 67 394 -14 q 490 26 469 43 q 611 -14 536 -14 q 677 33 653 -14 q 701 129 701 81 q 688 206 701 178 q 651 233 675 233 l 604 233 l 604 453 q 547 644 604 579 q 352 708 490 708 q 135 674 214 708 q 111 617 111 661 q 150 504 111 574 m 261 249 q 328 314 261 314 l 367 314 l 367 207 q 320 186 346 186 q 278 202 294 186 q 261 249 261 218 "},"å":{"ha":718,"x_min":19,"x_max":701,"o":"m 261 771 q 350 735 297 735 q 439 771 403 735 q 475 860 475 807 q 439 949 475 913 q 350 985 403 985 q 261 949 297 985 q 225 860 225 913 q 243 789 225 807 q 261 771 261 771 m 292 920 q 351 944 317 944 q 410 920 386 944 q 435 861 435 896 q 410 802 435 826 q 351 778 386 778 q 292 802 317 778 q 268 861 268 826 q 280 908 268 896 q 292 920 292 920 m 150 504 q 300 526 247 526 q 355 516 343 526 q 367 469 367 506 l 367 456 l 290 456 q 19 229 19 456 q 89 58 19 131 q 260 -14 158 -14 q 458 67 394 -14 q 490 26 469 43 q 611 -14 536 -14 q 677 33 653 -14 q 701 129 701 81 q 688 206 701 178 q 651 233 675 233 l 604 233 l 604 453 q 547 644 604 579 q 352 708 490 708 q 135 674 214 708 q 111 617 111 661 q 150 504 111 574 m 261 249 q 328 314 261 314 l 367 314 l 367 207 q 320 186 346 186 q 278 202 294 186 q 261 249 261 218 "},"æ":{"ha":951,"x_min":19,"x_max":924,"o":"m 847 204 q 668 161 760 161 q 608 172 629 161 q 582 214 588 183 l 582 233 l 674 233 q 924 456 924 233 q 850 622 924 553 q 646 692 776 692 q 485 640 585 692 q 332 685 411 685 q 131 651 203 685 q 107 607 107 639 q 146 488 107 553 q 171 494 154 490 q 217 503 188 497 q 289 510 247 510 q 342 499 331 510 q 354 454 354 488 l 354 442 l 279 442 q 19 219 19 442 q 85 55 19 124 q 250 -14 151 -14 q 440 60 376 -14 q 652 -14 525 -14 q 867 36 779 -14 q 892 92 892 50 q 847 204 892 135 m 315 300 l 354 300 l 354 199 q 307 179 332 179 q 251 240 251 179 q 315 300 251 300 m 697 431 q 653 385 697 385 l 582 385 l 582 440 q 642 486 592 486 q 697 431 697 486 "},"ç":{"ha":589,"x_min":36,"x_max":576,"o":"m 290 344 q 314 453 290 419 q 370 486 338 486 q 457 432 403 486 q 483 415 472 415 q 499 417 493 415 q 564 519 539 431 q 575 592 575 563 q 563 638 575 622 q 359 708 506 708 q 124 607 213 708 q 36 350 36 506 q 108 102 36 194 q 290 -8 181 10 l 290 -51 q 282 -88 290 -81 q 244 -96 274 -96 l 199 -96 q 167 -153 174 -96 q 167 -176 167 -167 q 183 -222 167 -214 q 285 -246 228 -246 q 414 -181 379 -246 q 426 -115 426 -157 q 410 -10 426 -74 q 544 32 489 -1 q 551 66 551 40 q 538 163 551 92 q 504 235 525 235 q 393 208 460 208 q 290 344 290 208 "},"è":{"ha":675,"x_min":36,"x_max":647,"o":"m 439 735 q 474 768 451 735 q 496 843 496 801 q 488 863 496 854 q 257 988 261 988 q 217 947 243 988 q 190 860 190 906 q 197 840 190 847 q 439 735 436 735 m 588 38 q 614 91 614 50 q 581 192 614 132 q 568 211 569 213 q 383 167 481 167 q 316 183 339 167 q 293 240 293 199 l 389 240 q 647 465 647 240 q 572 638 647 567 q 357 708 496 708 q 127 607 218 708 q 36 340 36 506 q 131 80 36 174 q 363 -14 225 -14 q 588 38 500 -14 m 414 439 q 368 392 414 392 l 293 392 l 293 435 q 312 481 293 465 q 357 497 331 497 q 414 439 414 497 "},"é":{"ha":675,"x_min":36,"x_max":647,"o":"m 247 735 q 489 840 250 735 q 496 863 496 847 q 464 954 496 906 q 429 988 443 988 q 199 863 425 988 q 190 828 190 854 q 215 763 190 801 q 247 735 235 735 m 588 38 q 614 91 614 50 q 581 192 614 132 q 568 211 569 213 q 383 167 481 167 q 316 183 339 167 q 293 240 293 199 l 389 240 q 647 465 647 240 q 572 638 647 567 q 357 708 496 708 q 127 607 218 708 q 36 340 36 506 q 131 80 36 174 q 363 -14 225 -14 q 588 38 500 -14 m 414 439 q 368 392 414 392 l 293 392 l 293 435 q 312 481 293 465 q 357 497 331 497 q 414 439 414 497 "},"ê":{"ha":675,"x_min":36,"x_max":647,"o":"m 167 728 q 343 831 169 728 q 521 728 518 728 q 557 764 533 728 q 581 843 581 800 q 572 863 581 856 l 358 979 q 343 985 349 985 q 328 979 338 985 l 114 863 q 106 828 106 856 q 133 758 106 800 q 167 728 154 728 m 588 38 q 614 91 614 50 q 581 192 614 132 q 568 211 569 213 q 383 167 481 167 q 316 183 339 167 q 293 240 293 199 l 389 240 q 647 465 647 240 q 572 638 647 567 q 357 708 496 708 q 127 607 218 708 q 36 340 36 506 q 131 80 36 174 q 363 -14 225 -14 q 588 38 500 -14 m 414 439 q 368 392 414 392 l 293 392 l 293 435 q 312 481 293 465 q 357 497 331 497 q 414 439 414 497 "},"ë":{"ha":675,"x_min":36,"x_max":647,"o":"m 279 767 l 279 965 q 183 972 279 972 q 86 960 86 972 l 86 765 q 183 758 86 758 q 279 767 279 758 m 599 767 l 599 965 q 502 972 599 972 q 406 960 406 972 l 406 765 q 502 758 406 758 q 599 767 599 758 m 588 38 q 614 91 614 50 q 581 192 614 132 q 568 211 569 213 q 383 167 481 167 q 316 183 339 167 q 293 240 293 199 l 389 240 q 647 465 647 240 q 572 638 647 567 q 357 708 496 708 q 127 607 218 708 q 36 340 36 506 q 131 80 36 174 q 363 -14 225 -14 q 588 38 500 -14 m 414 439 q 368 392 414 392 l 293 392 l 293 435 q 312 481 293 465 q 357 497 331 497 q 414 439 414 497 "},"ì":{"ha":371,"x_min":31,"x_max":338,"o":"m 279 735 q 314 768 292 735 q 336 843 336 801 q 328 863 336 854 q 97 988 101 988 q 57 947 83 988 q 31 860 31 906 q 38 840 31 847 q 279 735 276 735 m 308 8 l 308 668 q 185 675 308 675 q 63 667 63 675 l 63 7 q 185 -3 63 -3 q 308 8 308 -3 "},"í":{"ha":371,"x_min":29,"x_max":336,"o":"m 88 735 q 329 840 90 735 q 336 863 336 847 q 304 954 336 906 q 269 988 283 988 q 39 863 265 988 q 31 828 31 854 q 56 763 31 801 q 88 735 75 735 m 308 8 l 308 668 q 185 675 308 675 q 63 667 63 675 l 63 7 q 185 -3 63 -3 q 308 8 308 -3 "},"î":{"ha":371,"x_min":-54,"x_max":421,"o":"m 7 728 q 183 831 10 728 q 361 728 358 728 q 397 764 374 728 q 421 843 421 800 q 413 863 421 856 l 199 979 q 183 985 189 985 q 168 979 178 985 l -46 863 q -54 828 -54 856 q -26 758 -54 800 q 7 728 -6 728 m 308 8 l 308 668 q 185 675 308 675 q 63 667 63 675 l 63 7 q 185 -3 63 -3 q 308 8 308 -3 "},"ï":{"ha":371,"x_min":-74,"x_max":439,"o":"m 119 767 l 119 965 q 23 972 119 972 q -74 960 -74 972 l -74 765 q 23 758 -74 758 q 119 767 119 758 m 439 767 l 439 965 q 342 972 439 972 q 246 960 246 972 l 246 765 q 342 758 246 758 q 439 767 439 758 m 308 8 l 308 668 q 185 675 308 675 q 63 667 63 675 l 63 7 q 185 -3 63 -3 q 308 8 308 -3 "},"ð":{"ha":797,"x_min":56,"x_max":763,"o":"m 400 679 q 460 536 454 596 q 328 556 389 556 q 133 488 210 556 q 56 288 56 421 q 136 70 56 154 q 361 -14 217 -14 q 629 97 536 -14 q 722 400 722 207 q 653 729 722 593 l 732 746 q 763 790 763 751 q 750 831 763 813 q 718 850 738 850 l 713 850 l 596 826 q 400 985 486 985 q 243 861 325 985 q 329 772 294 813 l 167 739 q 135 694 135 733 q 147 653 135 672 q 179 635 160 635 l 400 679 m 296 299 q 315 359 296 336 q 367 382 333 382 q 456 363 428 382 q 457 336 457 353 q 435 249 457 283 q 364 214 413 214 q 296 299 296 214 "},"ñ":{"ha":765,"x_min":28,"x_max":710,"o":"m 189 768 q 210 783 196 772 q 229 798 224 794 q 245 808 235 801 q 263 817 256 815 q 281 822 271 819 q 305 825 290 825 q 383 797 319 825 q 500 769 447 769 q 510 769 504 769 q 594 800 550 769 q 660 885 660 844 q 631 938 660 899 q 585 976 601 976 q 578 975 581 976 q 482 921 533 922 q 399 947 453 921 q 301 972 344 972 q 121 885 208 972 q 117 868 117 881 q 140 815 117 856 q 189 768 163 775 m 353 8 l 353 454 q 385 472 360 460 q 424 483 410 483 q 472 414 472 483 l 472 13 q 591 -4 472 -4 q 710 13 710 -4 l 710 429 q 656 643 710 578 q 481 708 601 708 q 272 633 360 708 q 217 683 258 658 q 122 708 175 708 q 44 647 69 708 q 28 561 28 604 q 31 525 28 543 q 78 464 42 464 l 114 464 l 114 14 q 253 -1 114 3 q 353 8 353 -1 "},"ò":{"ha":713,"x_min":36,"x_max":676,"o":"m 123 82 q 357 -14 210 -14 q 590 82 504 -14 q 676 347 676 178 q 590 613 676 517 q 357 708 504 708 q 123 613 210 708 q 36 347 36 517 q 80 130 36 178 q 123 82 123 82 m 358 476 q 436 349 436 476 q 358 221 436 221 q 279 349 279 221 q 318 476 279 476 q 358 476 358 476 m 199 840 q 440 735 438 735 q 475 768 453 735 q 497 843 497 801 q 489 863 497 854 q 258 988 263 988 q 218 947 244 988 q 192 860 192 906 q 199 840 192 847 "},"ó":{"ha":713,"x_min":36,"x_max":676,"o":"m 123 82 q 357 -14 210 -14 q 590 82 504 -14 q 676 347 676 178 q 590 613 676 517 q 357 708 504 708 q 123 613 210 708 q 36 347 36 517 q 80 130 36 178 q 123 82 123 82 m 358 476 q 436 349 436 476 q 358 221 436 221 q 279 349 279 221 q 318 476 279 476 q 358 476 358 476 m 249 735 q 490 840 251 735 q 497 863 497 847 q 465 954 497 906 q 431 988 444 988 q 200 863 426 988 q 192 828 192 854 q 217 763 192 801 q 249 735 236 735 "},"ô":{"ha":713,"x_min":36,"x_max":676,"o":"m 123 82 q 357 -14 210 -14 q 590 82 504 -14 q 676 347 676 178 q 590 613 676 517 q 357 708 504 708 q 123 613 210 708 q 36 347 36 517 q 80 130 36 178 q 123 82 123 82 m 358 476 q 436 349 436 476 q 358 221 436 221 q 279 349 279 221 q 318 476 279 476 q 358 476 358 476 m 168 728 q 344 831 171 728 q 522 728 519 728 q 558 764 535 728 q 582 843 582 800 q 574 863 582 856 l 360 979 q 344 985 350 985 q 329 979 339 985 l 115 863 q 107 828 107 856 q 135 758 107 800 q 168 728 156 728 "},"õ":{"ha":713,"x_min":36,"x_max":676,"o":"m 147 768 q 168 783 154 772 q 188 798 182 794 q 203 808 193 801 q 222 817 214 815 q 239 822 229 819 q 263 825 249 825 q 342 797 278 825 q 458 769 406 769 q 468 769 463 769 q 553 800 508 769 q 618 885 618 844 q 589 938 618 899 q 543 976 560 976 q 536 975 539 976 q 440 921 492 922 q 357 947 411 921 q 260 972 303 972 q 79 885 167 972 q 75 868 75 881 q 98 815 75 856 q 147 768 121 775 m 123 82 q 357 -14 210 -14 q 590 82 504 -14 q 676 347 676 178 q 590 613 676 517 q 357 708 504 708 q 123 613 210 708 q 36 347 36 517 q 80 130 36 178 q 123 82 123 82 m 358 476 q 436 349 436 476 q 358 221 436 221 q 279 349 279 221 q 318 476 279 476 q 358 476 358 476 "},"ö":{"ha":713,"x_min":36,"x_max":676,"o":"m 282 767 l 282 965 q 185 972 282 972 q 89 960 89 972 l 89 765 q 185 758 89 758 q 282 767 282 758 m 601 767 l 601 965 q 505 972 601 972 q 408 960 408 972 l 408 765 q 505 758 408 758 q 601 767 601 758 m 123 82 q 357 -14 210 -14 q 590 82 504 -14 q 676 347 676 178 q 590 613 676 517 q 357 708 504 708 q 123 613 210 708 q 36 347 36 517 q 80 130 36 178 q 123 82 123 82 m 358 476 q 436 349 436 476 q 358 221 436 221 q 279 349 279 221 q 318 476 279 476 q 358 476 358 476 "},"÷":{"ha":849,"x_min":53,"x_max":781,"o":"m 519 129 l 519 326 q 417 332 519 332 q 315 322 315 332 l 315 128 q 417 122 315 122 q 519 129 519 122 m 519 642 l 519 840 q 417 846 519 846 q 315 836 315 846 l 315 642 q 417 633 315 633 q 519 642 519 633 m 732 403 q 774 443 761 403 q 781 483 781 464 q 774 524 781 503 q 732 564 761 564 l 101 564 q 60 524 72 564 q 53 483 53 503 q 60 443 53 464 q 101 403 72 403 l 732 403 "},"ø":{"ha":713,"x_min":36,"x_max":676,"o":"m 125 78 l 101 35 q 96 15 96 26 q 114 -15 96 3 q 194 -51 147 -51 q 221 -36 208 -51 l 243 3 q 357 -14 294 -14 q 590 82 504 -14 q 676 351 676 178 q 583 619 676 524 l 626 697 q 603 756 642 728 q 570 775 586 768 q 535 782 554 782 q 508 765 517 782 l 467 692 q 357 708 417 708 q 123 613 210 708 q 36 346 36 517 q 125 78 36 175 m 503 349 q 458 184 503 233 q 357 135 414 135 q 318 140 335 135 l 489 450 q 503 349 503 410 m 214 349 q 257 514 214 465 q 357 563 300 563 q 393 557 378 563 l 224 254 q 214 349 214 289 "},"ù":{"ha":756,"x_min":56,"x_max":735,"o":"m 488 735 q 522 768 500 735 q 544 843 544 801 q 536 863 544 854 q 306 988 310 988 q 265 947 292 988 q 239 860 239 906 q 246 840 239 847 q 488 735 485 735 m 56 686 l 56 276 q 119 53 56 121 q 318 -14 183 -14 q 500 61 415 -14 l 501 63 q 639 -14 546 -14 q 714 47 686 -14 q 733 140 733 94 q 686 231 733 231 l 650 231 l 650 686 q 532 700 650 700 q 414 686 414 700 l 414 240 q 339 211 372 211 q 294 281 294 211 l 294 686 q 175 701 294 701 q 56 686 56 701 "},"ú":{"ha":756,"x_min":56,"x_max":735,"o":"m 56 686 l 56 276 q 119 53 56 121 q 318 -14 183 -14 q 500 61 415 -14 l 501 63 q 639 -14 546 -14 q 714 47 686 -14 q 733 140 733 94 q 686 231 733 231 l 650 231 l 650 686 q 532 700 650 700 q 414 686 414 700 l 414 240 q 339 211 372 211 q 294 281 294 211 l 294 686 q 175 701 294 701 q 56 686 56 701 m 296 735 q 538 840 299 735 q 544 863 544 847 q 513 954 544 906 q 478 988 492 988 q 247 863 474 988 q 239 828 239 854 q 264 763 239 801 q 296 735 283 735 "},"û":{"ha":756,"x_min":56,"x_max":735,"o":"m 174 728 q 350 831 176 728 q 528 728 525 728 q 564 764 540 728 q 588 843 588 800 q 579 863 588 856 l 365 979 q 350 985 356 985 q 335 979 344 985 l 121 863 q 113 828 113 856 q 140 758 113 800 q 174 728 161 728 m 56 686 l 56 276 q 119 53 56 121 q 318 -14 183 -14 q 500 61 415 -14 l 501 63 q 639 -14 546 -14 q 714 47 686 -14 q 733 140 733 94 q 686 231 733 231 l 650 231 l 650 686 q 532 700 650 700 q 414 686 414 700 l 414 240 q 339 211 372 211 q 294 281 294 211 l 294 686 q 175 701 294 701 q 56 686 56 701 "},"ü":{"ha":756,"x_min":56,"x_max":735,"o":"m 293 767 l 293 965 q 197 972 293 972 q 100 960 100 972 l 100 765 q 197 758 100 758 q 293 767 293 758 m 613 767 l 613 965 q 516 972 613 972 q 419 960 419 972 l 419 765 q 516 758 419 758 q 613 767 613 758 m 56 686 l 56 276 q 119 53 56 121 q 318 -14 183 -14 q 500 61 415 -14 l 501 63 q 639 -14 546 -14 q 714 47 686 -14 q 733 140 733 94 q 686 231 733 231 l 650 231 l 650 686 q 532 700 650 700 q 414 686 414 700 l 414 240 q 339 211 372 211 q 294 281 294 211 l 294 686 q 175 701 294 701 q 56 686 56 701 "},"ý":{"ha":746,"x_min":14,"x_max":731,"o":"m 14 688 l 250 56 l 129 -236 q 190 -248 126 -243 q 328 -253 254 -253 q 404 -244 403 -253 l 731 685 q 686 699 736 696 q 551 701 636 701 q 460 690 465 701 l 367 369 l 272 689 q 141 703 268 703 q 14 688 14 703 m 268 735 q 510 840 271 735 q 517 863 517 847 q 485 954 517 906 q 450 988 464 988 q 219 863 446 988 q 211 828 211 854 q 236 763 211 801 q 268 735 256 735 "},"þ":{"ha":872,"x_min":128,"x_max":744,"o":"m 453 708 q 368 697 428 708 l 368 967 q 248 985 368 985 q 128 968 128 985 l 128 -229 q 165 -256 128 -246 q 251 -265 201 -265 q 367 -229 367 -265 l 367 3 q 414 0 397 0 q 656 97 568 0 q 744 374 744 193 q 453 708 744 708 m 492 349 q 467 236 492 271 q 407 201 442 201 q 368 211 390 201 l 368 476 q 417 493 392 493 q 492 349 492 493 "},"ÿ":{"ha":728,"x_min":14,"x_max":731,"o":"m 14 688 l 250 56 l 129 -236 q 190 -248 126 -243 q 328 -253 254 -253 q 404 -244 403 -253 l 731 685 q 686 699 736 696 q 551 701 636 701 q 460 690 465 701 l 367 369 l 272 689 q 141 703 268 703 q 14 688 14 703 m 300 767 l 300 965 q 203 972 300 972 q 107 960 107 972 l 107 765 q 203 758 107 758 q 300 767 300 758 m 619 767 l 619 965 q 523 972 619 972 q 426 960 426 972 l 426 765 q 523 758 426 758 q 619 767 619 758 "},"ı":{"ha":346,"x_min":53,"x_max":299,"o":"m 299 8 l 299 668 q 176 675 299 675 q 53 667 53 675 l 53 7 q 176 -3 53 -3 q 299 8 299 -3 "},"Ł":{"ha":651,"x_min":7,"x_max":628,"o":"m 94 36 q 100 8 94 17 q 128 0 106 0 l 589 0 q 622 58 614 0 q 628 115 628 86 q 622 175 628 143 q 586 232 611 232 l 375 232 l 375 406 l 508 406 q 544 446 533 406 q 550 486 550 467 q 544 526 550 506 q 508 567 533 567 l 375 567 l 375 951 q 306 981 375 972 l 232 986 q 164 982 199 986 q 94 951 94 974 l 94 567 l 49 567 q 13 526 24 567 q 7 486 7 506 q 13 446 7 467 q 49 406 24 406 l 94 406 l 94 36 "},"ł":{"ha":529,"x_min":7,"x_max":514,"o":"m 385 11 l 385 303 l 472 303 q 508 343 497 303 q 514 383 514 364 q 508 424 514 403 q 472 464 497 464 l 385 464 l 385 963 q 267 976 385 972 q 132 956 132 976 l 132 464 l 49 464 q 13 424 24 464 q 7 383 7 403 q 13 343 7 364 q 49 303 24 303 l 132 303 l 132 10 q 243 -1 132 0 q 385 11 385 -1 "},"Œ":{"ha":1218,"x_min":42,"x_max":1133,"o":"m 1021 589 l 839 589 l 839 725 l 1099 725 q 1128 849 1128 725 q 1099 972 1128 972 l 611 972 q 485 988 551 988 q 167 860 293 988 q 42 485 42 732 q 165 110 42 239 q 479 -19 289 -19 q 613 0 554 -19 l 1097 0 q 1125 47 1117 0 q 1133 125 1133 94 q 1129 183 1133 156 q 1097 244 1121 244 l 839 244 l 839 383 l 1018 383 q 1041 423 1035 383 q 1047 492 1047 463 q 1021 589 1047 589 m 487 718 q 599 658 554 718 q 644 485 644 597 q 601 314 644 374 q 486 254 557 254 q 372 314 415 254 q 328 485 328 374 q 374 657 328 596 q 453 718 419 718 q 487 718 487 718 "},"œ":{"ha":1075,"x_min":36,"x_max":1047,"o":"m 123 82 q 345 -14 210 -14 q 560 53 481 -14 q 772 -14 644 -14 q 988 38 900 -14 q 1014 91 1014 50 q 981 192 1014 132 q 968 211 969 213 q 783 167 881 167 q 716 183 739 167 q 693 240 693 199 l 789 240 q 1047 465 1047 240 q 972 638 1047 567 q 772 708 896 708 q 563 640 649 708 q 345 708 481 708 q 123 613 210 708 q 36 347 36 517 q 80 130 36 178 q 123 82 123 82 m 357 476 q 413 447 389 476 q 436 347 436 418 q 358 221 436 221 q 279 349 279 221 q 357 476 279 476 m 814 439 q 768 392 814 392 l 693 392 l 693 435 q 712 481 693 465 q 757 497 731 497 q 814 439 814 497 "},"Š":{"ha":744,"x_min":40,"x_max":693,"o":"m 106 339 q 61 265 82 321 q 40 151 40 208 q 90 54 40 94 q 208 0 140 14 q 358 -14 275 -14 q 611 83 529 -11 q 693 326 693 178 q 619 510 693 440 q 552 563 583 543 q 494 597 521 583 q 446 619 467 610 q 414 635 425 629 q 363 689 363 658 q 433 739 363 739 q 592 693 503 739 q 635 776 604 701 q 665 899 665 850 q 665 907 665 903 q 578 963 663 942 q 393 985 493 985 q 155 901 246 985 q 64 694 64 817 q 119 493 64 572 q 176 437 139 464 q 235 398 213 410 q 301 365 257 386 q 363 328 346 344 q 379 292 379 313 q 320 246 379 246 q 197 282 261 246 q 106 339 132 318 m 544 1276 q 368 1174 542 1276 q 190 1276 193 1276 q 154 1240 178 1276 q 131 1161 131 1204 q 139 1142 131 1149 l 353 1025 q 368 1019 363 1019 q 383 1025 374 1019 l 597 1142 q 606 1176 606 1149 q 578 1246 606 1204 q 544 1276 557 1276 "},"š":{"ha":625,"x_min":35,"x_max":590,"o":"m 92 250 q 53 193 72 236 q 35 111 35 150 q 115 19 35 53 q 294 -14 196 -14 q 517 55 443 -14 q 590 235 590 124 q 524 372 590 319 q 466 411 492 397 q 401 442 440 425 q 348 472 363 460 q 333 500 333 483 q 371 526 333 526 q 500 493 440 526 q 541 547 511 497 q 571 628 571 597 q 498 686 571 664 q 320 708 425 708 q 140 654 215 708 q 65 497 65 600 q 239 265 65 336 q 311 211 311 232 q 269 182 311 182 q 92 250 204 182 m 489 985 q 313 882 486 985 q 135 985 138 985 q 99 949 122 985 q 75 869 75 913 q 83 850 75 857 l 297 733 q 313 728 307 728 q 328 733 318 728 l 542 850 q 550 885 550 857 q 522 954 550 913 q 489 985 501 985 "},"Ÿ":{"ha":854,"x_min":-15,"x_max":876,"o":"m 553 936 l 436 633 l 335 936 q 147 986 318 986 q 42 978 104 986 q -15 963 -21 971 l 283 339 l 283 25 q 360 -10 283 0 q 435 -14 397 -14 q 511 -8 472 -14 q 588 25 588 1 l 588 347 l 876 965 q 826 979 881 974 q 731 985 771 985 q 553 936 571 985 m 364 1044 l 364 1243 q 267 1250 364 1250 q 171 1238 171 1250 l 171 1043 q 267 1036 171 1036 q 364 1044 364 1036 m 683 1044 l 683 1243 q 587 1250 683 1250 q 490 1238 490 1250 l 490 1043 q 587 1036 490 1036 q 683 1044 683 1036 "},"Ž":{"ha":782,"x_min":51,"x_max":747,"o":"m 106 719 l 382 719 l 57 215 q 53 189 53 210 q 85 84 53 168 q 131 0 118 0 l 671 0 q 718 69 703 0 q 726 143 726 108 q 721 210 726 178 q 678 276 708 276 q 675 276 676 276 l 421 276 l 746 769 q 747 781 747 771 q 713 881 747 790 q 657 972 679 972 l 117 972 q 75 908 88 972 q 68 842 68 874 q 72 783 68 810 q 106 719 82 719 m 565 1263 q 389 1160 563 1263 q 211 1263 214 1263 q 175 1226 199 1263 q 151 1147 151 1190 q 160 1128 151 1135 l 374 1011 q 389 1006 383 1006 q 404 1011 394 1006 l 618 1128 q 626 1163 626 1135 q 599 1232 626 1190 q 565 1263 578 1263 "},"ž":{"ha":631,"x_min":35,"x_max":596,"o":"m 60 472 l 303 481 l 38 171 q 35 153 35 168 q 64 69 35 139 q 114 0 93 0 l 558 0 q 582 49 575 0 q 589 135 589 97 q 567 233 589 233 l 325 217 l 594 556 q 596 565 596 557 q 563 633 596 572 q 519 694 529 694 l 76 694 q 50 532 50 694 q 60 472 50 472 m 493 985 q 317 882 490 985 q 139 985 142 985 q 103 949 126 985 q 79 869 79 913 q 88 850 79 857 l 301 733 q 317 728 311 728 q 332 733 322 728 l 546 850 q 554 885 554 857 q 526 954 554 913 q 493 985 506 985 "},"ƒ":{"ha":586,"x_min":-125,"x_max":642,"o":"m 522 694 l 393 694 l 397 724 q 458 796 407 796 q 553 767 508 796 q 575 788 553 764 q 619 848 597 811 q 642 914 642 885 q 573 967 642 950 q 443 985 504 985 q 266 928 332 985 q 185 725 200 871 l 181 694 l 85 694 q 57 618 71 694 q 50 553 50 581 q 65 510 50 510 l 161 510 l 110 -10 q 47 -82 103 -82 q -62 -53 -18 -82 q -100 -117 -75 -71 q -125 -199 -125 -162 q -74 -253 -125 -235 q 51 -271 -22 -271 q 340 -25 307 -271 l 393 508 l 496 508 q 514 528 506 508 q 538 647 538 578 q 522 694 538 694 "},"ˆ":{"ha":667,"x_min":100,"x_max":575,"o":"m 161 728 q 338 831 164 728 q 515 728 513 728 q 551 764 528 728 q 575 843 575 800 q 567 863 575 856 l 353 979 q 338 985 343 985 q 322 979 332 985 l 108 863 q 100 828 100 856 q 128 758 100 800 q 161 728 149 728 "},"ˇ":{"ha":671,"x_min":100,"x_max":575,"o":"m 514 985 q 338 882 511 985 q 160 985 163 985 q 124 949 147 985 q 100 869 100 913 q 108 850 100 857 l 322 733 q 338 728 332 728 q 353 733 343 728 l 567 850 q 575 885 575 857 q 547 954 575 913 q 514 985 526 985 "},"˚":{"ha":550,"x_min":156,"x_max":406,"o":"m 192 771 q 281 735 228 735 q 369 771 333 735 q 406 860 406 807 q 369 949 406 913 q 281 985 333 985 q 192 949 228 985 q 156 860 156 913 q 174 789 156 807 q 192 771 192 771 m 223 920 q 282 944 247 944 q 341 920 317 944 q 365 861 365 896 q 341 802 365 826 q 282 778 317 778 q 223 802 247 778 q 199 861 199 826 q 211 908 199 896 q 223 920 223 920 "},"˜":{"ha":611,"x_min":29,"x_max":574,"o":"m 103 768 q 124 783 110 772 q 143 798 138 794 q 159 808 149 801 q 177 817 169 815 q 194 822 185 819 q 219 825 204 825 q 297 797 233 825 q 414 769 361 769 q 424 769 418 769 q 508 800 464 769 q 574 885 574 844 q 544 938 574 899 q 499 976 515 976 q 492 975 494 976 q 396 921 447 922 q 313 947 367 921 q 215 972 258 972 q 35 885 122 972 q 31 868 31 881 q 53 815 31 856 q 103 768 76 775 "},"–":{"ha":651,"x_min":65,"x_max":586,"o":"m 544 264 q 581 304 569 264 q 586 344 586 325 q 581 385 586 364 q 544 425 569 425 l 107 425 q 71 385 82 425 q 65 344 65 364 q 71 304 65 325 q 107 264 82 264 l 544 264 "},"—":{"ha":1096,"x_min":93,"x_max":972,"o":"m 931 264 q 967 304 956 264 q 972 344 972 325 q 967 385 972 364 q 931 425 956 425 l 135 425 q 99 385 110 425 q 93 344 93 364 q 99 304 93 325 q 135 264 110 264 l 931 264 "},"‘":{"ha":474,"x_min":124,"x_max":364,"o":"m 124 651 q 183 615 124 626 q 244 610 214 610 q 304 615 275 610 q 364 651 364 626 l 281 944 q 244 977 274 969 q 197 985 215 985 q 160 981 178 985 q 124 944 124 971 l 124 651 "},"’":{"ha":436,"x_min":97,"x_max":338,"o":"m 214 617 q 254 653 254 628 l 338 946 q 278 982 338 971 q 217 988 247 988 q 157 982 186 988 q 97 946 97 971 l 97 653 q 136 617 97 628 q 175 611 156 611 q 214 617 194 611 "},"‚":{"ha":511,"x_min":74,"x_max":394,"o":"m 167 206 l 161 79 l 76 -93 q 75 -105 75 -99 q 81 -118 75 -111 q 199 -149 106 -149 q 311 -108 293 -149 l 392 81 l 394 199 q 285 228 394 228 q 167 206 175 228 "},"“":{"ha":783,"x_min":124,"x_max":683,"o":"m 124 651 q 183 615 124 626 q 244 610 214 610 q 304 615 275 610 q 364 651 364 626 l 281 944 q 244 977 274 969 q 197 985 215 985 q 160 981 178 985 q 124 944 124 971 l 124 651 m 443 651 q 503 615 443 626 q 564 610 533 610 q 624 615 594 610 q 683 651 683 626 l 600 944 q 564 977 593 969 q 516 985 535 985 q 479 981 497 985 q 443 944 443 971 l 443 651 "},"”":{"ha":736,"x_min":97,"x_max":651,"o":"m 254 651 l 338 944 q 278 981 338 969 q 217 986 247 986 q 157 981 186 986 q 97 944 97 969 l 97 651 q 133 615 97 625 q 170 611 151 611 q 218 619 189 611 q 254 651 247 626 m 568 651 l 651 944 q 592 981 651 969 q 531 986 561 986 q 471 981 500 986 q 411 944 411 969 l 411 651 q 447 615 411 625 q 484 611 465 611 q 532 619 503 611 q 568 651 561 626 "},"„":{"ha":904,"x_min":74,"x_max":769,"o":"m 167 206 l 161 79 l 76 -93 q 75 -105 75 -99 q 81 -118 75 -111 q 199 -149 106 -149 q 311 -108 293 -149 l 392 81 l 394 199 q 285 228 394 228 q 167 206 175 228 m 542 206 l 536 79 l 451 -93 q 450 -105 450 -99 q 456 -118 450 -111 q 574 -149 481 -149 q 686 -108 668 -149 l 767 81 l 769 199 q 660 228 769 228 q 542 206 550 228 "},"†":{"ha":660,"x_min":51,"x_max":614,"o":"m 414 564 l 569 564 q 606 604 594 564 q 613 647 613 626 q 608 685 613 667 q 572 725 599 725 l 414 725 l 414 976 q 374 1013 414 1001 l 333 1018 q 293 1013 314 1018 q 253 976 253 1001 l 253 725 l 96 725 q 58 685 71 725 q 53 642 53 663 q 57 604 53 622 q 93 564 67 564 l 253 564 l 253 -69 q 293 -106 253 -94 l 333 -111 q 374 -106 353 -111 q 414 -69 414 -94 l 414 564 "},"‡":{"ha":667,"x_min":51,"x_max":614,"o":"m 569 161 q 606 201 594 161 q 613 244 613 224 q 608 282 613 264 q 572 322 599 322 l 414 322 l 414 606 l 569 606 q 606 646 594 606 q 613 688 613 668 q 608 726 613 708 q 572 767 599 767 l 414 767 l 414 976 q 374 1013 414 1001 l 333 1018 q 293 1013 314 1018 q 253 976 253 1001 l 253 767 l 96 767 q 58 726 71 767 q 53 684 53 704 q 57 646 53 664 q 93 606 67 606 l 253 606 l 253 322 l 96 322 q 58 282 71 322 q 53 240 53 260 q 57 201 53 219 q 93 161 67 161 l 253 161 l 253 -69 q 293 -106 253 -94 l 333 -111 q 374 -106 353 -111 q 414 -69 414 -94 l 414 161 l 569 161 "},"•":{"ha":496,"x_min":115,"x_max":379,"o":"m 154 274 q 247 235 193 235 q 340 274 301 235 q 379 367 379 313 q 340 460 379 421 q 247 499 301 499 q 154 460 193 499 q 115 367 115 421 q 135 293 115 313 q 154 274 154 274 "},"…":{"ha":1263,"x_min":81,"x_max":1185,"o":"m 343 -4 l 343 250 q 212 257 343 257 q 81 244 81 257 l 81 -6 q 212 -14 81 -14 q 343 -4 343 -14 m 764 -4 l 764 250 q 633 257 764 257 q 501 244 501 257 l 501 -6 q 633 -14 501 -14 q 764 -4 764 -14 m 1185 -4 l 1185 250 q 1053 257 1185 257 q 922 244 922 257 l 922 -6 q 1053 -14 922 -14 q 1185 -4 1185 -14 "},"‰":{"ha":1397,"x_min":49,"x_max":1324,"o":"m 1114 524 q 971 471 1024 524 q 828 524 918 524 q 681 456 739 524 q 622 255 622 389 q 682 55 622 121 q 831 -11 742 -11 q 972 42 919 -11 q 1115 -11 1025 -11 q 1265 57 1206 -11 q 1324 256 1324 125 q 1264 456 1324 388 q 1159 524 1204 524 q 1114 524 1114 524 m 803 975 l 143 92 q 138 72 138 85 q 156 39 138 60 q 247 -14 197 -14 q 274 -3 261 -14 l 933 881 q 939 901 939 888 q 922 935 939 914 q 829 986 881 986 q 803 975 815 986 m 259 988 q 107 920 165 988 q 49 719 49 853 q 108 519 49 585 q 261 453 168 453 q 413 521 354 453 q 472 720 472 589 q 413 919 472 851 q 306 988 353 988 q 259 988 259 988 m 326 721 q 308 656 326 678 q 261 633 290 633 q 214 656 232 633 q 196 721 196 678 q 261 811 196 811 q 326 721 326 811 m 835 347 q 879 326 861 347 q 900 265 897 306 l 900 256 q 835 169 899 169 q 788 192 806 169 q 769 257 769 214 q 835 347 769 347 m 1178 257 q 1160 192 1178 214 q 1113 169 1142 169 q 1065 192 1083 169 q 1047 257 1047 214 q 1113 347 1047 347 q 1178 257 1178 347 "},"‹":{"ha":690,"x_min":124,"x_max":503,"o":"m 138 328 l 379 40 q 401 32 388 32 q 442 49 414 32 q 487 92 471 65 q 503 133 503 119 q 493 154 503 146 l 307 354 l 490 551 q 500 573 500 560 q 484 613 500 586 q 440 657 468 640 q 398 674 411 674 q 376 665 385 674 l 143 392 q 124 357 124 372 q 138 328 124 342 "},"›":{"ha":615,"x_min":124,"x_max":503,"o":"m 247 40 l 489 328 q 503 357 503 342 q 483 392 503 372 l 250 665 q 228 674 242 674 q 186 657 214 674 q 142 613 158 640 q 126 573 126 586 q 136 551 126 560 l 319 354 l 133 154 q 124 133 124 146 q 140 92 124 119 q 183 47 156 64 q 224 31 211 31 q 247 40 238 31 "},"⁄":{"ha":435,"x_min":-118,"x_max":485,"o":"m 342 942 l -114 150 q -118 135 -118 143 q -114 119 -118 128 q -46 64 -99 89 q -4 54 -25 54 q 25 68 17 54 l 481 860 q 483 874 483 865 q 478 892 483 882 q 411 947 463 924 q 369 957 389 957 q 342 942 349 957 "},"€":{"ha":797,"x_min":75,"x_max":756,"o":"m 739 881 q 665 955 739 926 q 496 983 592 983 q 194 851 313 983 q 75 488 75 718 q 195 124 75 258 q 493 -11 315 -11 q 678 21 600 -11 q 756 107 756 53 q 738 182 756 131 q 699 268 719 233 q 668 303 679 303 q 653 294 665 303 q 601 274 642 285 q 528 264 561 264 q 343 372 413 264 l 581 372 q 610 394 601 372 q 614 417 614 406 q 607 444 614 428 q 581 461 600 461 l 318 461 q 315 525 315 475 l 581 525 q 608 547 600 525 q 611 569 611 558 q 608 592 611 581 q 581 614 600 614 l 333 614 q 507 711 383 711 q 640 682 600 711 q 649 679 644 679 q 684 714 663 679 q 722 801 706 749 q 739 881 739 853 "},"™":{"ha":1115,"x_min":74,"x_max":1035,"o":"m 332 486 l 332 817 l 396 817 q 424 894 424 817 q 396 971 424 971 l 100 971 q 74 894 74 971 q 100 817 74 817 l 167 817 l 167 486 q 249 463 167 463 q 332 486 332 463 m 1035 490 l 1013 944 q 888 976 1003 976 q 797 947 811 976 l 742 738 l 678 954 q 569 978 668 978 q 474 944 478 978 l 451 488 q 532 463 451 463 q 613 488 613 463 l 622 711 l 681 482 q 742 464 686 464 q 803 482 797 464 l 860 708 l 871 489 q 954 464 874 464 q 1035 490 1035 464 "},"−":{"ha":838,"x_min":93,"x_max":725,"o":"m 683 264 q 719 304 708 264 q 725 344 725 325 q 719 385 725 364 q 683 425 708 425 l 135 425 q 99 385 110 425 q 93 344 93 364 q 99 304 93 325 q 135 264 110 264 l 683 264 "},"ﬁ":{"ha":900,"x_min":28,"x_max":785,"o":"m 782 8 l 782 657 q 729 694 782 694 l 326 694 l 326 724 q 338 780 326 764 q 383 796 350 796 q 457 776 415 796 q 482 849 467 786 q 490 912 490 882 q 452 963 490 942 q 344 985 414 985 q 177 928 236 985 q 118 725 118 871 l 118 694 l 50 694 q 29 602 29 694 q 50 510 29 510 l 118 510 l 118 17 q 234 0 118 0 q 350 17 350 0 l 350 508 l 528 508 l 528 7 q 655 -3 528 -3 q 782 8 782 -3 m 785 772 l 785 976 q 656 985 785 985 q 528 971 528 985 l 528 775 q 656 764 528 764 q 785 772 785 764 "},"ﬂ":{"ha":899,"x_min":28,"x_max":782,"o":"m 782 8 l 782 976 q 655 985 782 985 q 528 971 528 985 l 528 694 l 325 694 l 325 724 q 337 780 325 764 q 381 796 349 796 q 456 776 414 796 q 481 849 465 786 q 489 912 489 882 q 451 963 489 942 q 343 985 413 985 q 176 928 235 985 q 117 725 117 871 l 117 694 l 49 694 q 28 602 28 694 q 49 510 28 510 l 117 510 l 117 17 q 233 0 117 0 q 349 17 349 0 l 349 508 l 528 508 l 528 7 q 655 -3 528 -3 q 782 8 782 -3 "}}}
